<svg xmlns="http://www.w3.org/2000/svg" width="378.255" height="378.255"><defs id="defs4"><style id="style2">.cls-1{fill:#a6a6a6}</style></defs><path id="path6" fill="#a6a6a6" d="M327.286 194.254a25.37 25.37 0 0 0-10.21-48.41h-33.8v88.82h13.46v-38.16c4.62 0 9.09.05 13.55 0a2.46 2.46 0 0 1 2.51 1.49c6.81 11.89 13.68 23.75 20.5 35.63a1.61 1.61 0 0 0 1.61.93h13.51a8.23 8.23 0 0 0 1-.12l-22.96-39.75c.35-.18.59-.31.83-.43zm-10.39-10.35h-19.06c-.74 0-1.17-.06-1.17-1v-23.65a7.16 7.16 0 0 1 .11-.82h19.92a12.73 12.73 0 0 1 .18 25.46z" class="cls-1"/><path id="path8" fill="#a6a6a6" d="M153.946 183.904h-37.07c-1.1 0-1.11-.51-1.11-1.32v-36.68h-13.42v88.68h13.49v-38h38.19v38h13.37v-88.69h-13.45z" class="cls-1"/><path id="path10" fill="#a6a6a6" d="M198.886 234.504h55.71v-12.61h-42.24v-25.39h42.17v-12.58h-42.2v-25.53h42.23v-12.5h-55.67z" class="cls-1"/><path id="path12" fill="#a6a6a6" d="M68.936 165.107l9-8.65a46 46 0 1 0-63.51 66.56c19.87 17.64 48.1 13.95 63.24-2.15l-8.84-8.77a33.51 33.51 0 1 1 .12-47z" class="cls-1"/><path id="path14" fill="#a6a6a6" d="M370.096 217.794a8.45 8.45 0 1 0 0 16.89 8.45 8.45 0 0 0 0-16.89z" class="cls-1"/></svg>
