<svg xmlns="http://www.w3.org/2000/svg" width="413.4" height="413.4"><defs id="defs4"><style id="style2">.cls-2{fill:#c00a17}</style></defs><path id="path6" fill="#c00a17" d="M171.7 220.4v-36.6h12.7c.7 0 1.4.9 2 1.4l17.5 18.4 4.2-4.2c4.6-4.7 9.1-9.5 13.8-14.1a6 6 0 0 1 3.6-1.5c3.5-.2 7 0 10.9 0v36.5h142.7l-24.2-19.9v12h-12.5v-29h12.3v13.1l2.4-2.4 9.3-9.6a3.8 3.7 0 0 1 2.3-1.2H384l-13.5 13.9 42.9 35.3H221.6V207l-17 16.7-18-16.4v25.1l-2.2.2H26.3a26.5 26.5 0 0 1-25-17.8 25.5 25.5 0 0 1 8.8-28.6 26.7 26.7 0 0 1 29.9-1.5l1.2.8-5.5 12.4c-2.8-1.2-5.3-2.7-8-3.2a11.7 11.7 0 0 0-12.7 7 13.2 13.1 0 0 0 3.2 15 14.5 14.5 0 0 0 10 3.7h140z" class="cls-2"/><path id="path8" fill="#c00a17" d="M91 197.9l.7 14.4h-12v-28.5h10c.6 0 1.3.9 2 1.4l15.6 13.3v-14.7H119v28.7h-9.5a4.1 4.1 0 0 1-2-1.2l-14-11.5-2.5-2z" class="cls-2"/><path id="path10" fill="#c00a17" d="M310.3 201v11.3h-12v-28.6H320a22.8 22.8 0 0 1 5.3.8 7.2 7.2 0 0 1 5.7 5.8c.6 3.3-.7 5.7-3.4 7.6l-1.7 1c4.6 3.4 6.1 8.7 9.5 13.5H324c-.5 0-1-.9-1.3-1.4l-3.5-6.2c-2-3.6-4.4-4.6-9-3.8zm0-12.3v7.5a49.3 49.3 0 0 0 6.3 0 3.7 3.7 0 0 0-.2-7.5c-2-.2-3.9 0-6 0z" class="cls-2"/><path id="path12" fill="#c00a17" d="M290.4 212.6c-3.8 0-7.2.1-10.6-.1a3.6 3.6 0 0 1-2.2-2 3.8 3.8 0 0 0-4.3-2.7c-3.6.2-7.1.2-10.7 0-1.7 0-2.8.4-3.2 2.1-.5 2.3-2 2.9-4.1 2.7H246l3.6-6.5 11.3-20.6c.7-1.3 1.6-2 3-1.8a16.8 16.8 0 0 0 1.8 0c2.9.1 6.3-.7 8.5.6 2 1.2 3 4.6 4.4 7.2l11.7 21zm-16.8-10l-5.4-11.2-5.4 11.2z" class="cls-2"/><path id="path14" fill="#c00a17" d="M132.4 183.8H158v6h-13.4v4.8h12v6.4h-12v5.7h13.8v5.6h-26z" class="cls-2"/><path id="path16" fill="#c00a17" d="M51.8 183.8h11.4v28.6H51.8z" class="cls-2"/></svg>
