<svg xmlns="http://www.w3.org/2000/svg" width="371.9" height="371.9"><defs id="defs4"><style id="style2">.cls-1{fill:#a6a6a6}</style></defs><path id="path6" fill="#a6a6a6" d="M320.6 191.4h17.8c1.4 8.3-1.7 14.2-9.1 16a49.2 49.2 0 0 1-11 1.4q-18.3.2-36.6 0a32 32 0 0 1-8.9-1.7c-6.4-2-9.8-6.9-10-13.7V180c.1-9.3 4-14.2 13.2-15.9a66.5 66.6 0 0 1 11.7-1.2c11.2 0 22.4 0 33.6.3a33.5 33.5 0 0 1 6.6.9c6.7 1.4 10 5.4 10.2 12.2 0 3.9 0 3.2-3.1 3.2h-14.8c-1-3.8-2-4.8-5.8-5.3a18 18 0 0 0-2.8-.2c-7.8 0-15.6 0-23.3.4-5.2.2-7.2 2.7-7.3 7.8v7.8c.1 4.1 2 6.5 6.1 7.2a39.5 39.5 0 0 0 7 .7c6.7 0 13.3-.2 19.9-.4a6.3 6.3 0 0 0 1-.1c4-.8 5-2 5.6-6.1z" class="cls-1"/><path id="path8" fill="#a6a6a6" d="M246.8 179.5H229c-.6-3.2-1.7-4.4-5-5a21.8 21.8 0 0 0-4-.4l-20.4.1a32.7 32.7 0 0 0-4.5.6c-2.7.4-4.5 2-4.7 4.6a91 91 0 0 0-.2 12.6c.3 3 2.6 4.8 5.6 5.2a45.6 45.6 0 0 0 7.2.8c6.6 0 13.1-.2 19.6-.3a5 5 0 0 0 .7-.1c4.4-.7 5.5-1.7 6.2-6.2h17.8c1.2 9-1.5 14-9.6 16a46.1 46.1 0 0 1-10.9 1.4q-18 .2-35.8 0a33 33 0 0 1-9-1.6c-6-1.9-9.9-6-10-12.5-.3-6-.3-12.1.1-18.2.4-5.6 3.5-9.4 9-11.3A49.1 49.1 0 0 1 197 163c11.2 0 22.3 0 33.5.3a32.7 32.7 0 0 1 6.8 1c6.2 1.4 9.3 5.2 9.7 11.5v3.7z" class="cls-1"/><path id="path10" fill="#a6a6a6" d="M138.5 163.6h17.7l.1 1.4v29a19.8 19.8 0 0 1-.7 5.5c-1.4 4.5-4.7 7-9.1 7.9a72.3 72.3 0 0 1-12.4 1.4 912 912 0 0 1-30.5 0 38.5 38.5 0 0 1-13.3-2.4c-4.6-1.8-7.3-5.2-7.4-10-.2-10.8 0-21.7 0-32.7h17.7v26.2c0 5.2 1.5 7.2 6.6 7.6 6.7.4 13.4.4 20 .4a32.8 32.8 0 0 0 6.7-.7 5.3 5.3 0 0 0 4.4-4.9 22.8 22.8 0 0 0 .3-3v-23.6-2z" class="cls-1"/><path id="path12" fill="#a6a6a6" d="M67.3 174.4H42.6v34H24.8v-34H0v-10.7l1.7-.1h63.5c2.1 0 2.1 0 2.1 2v8.8z" class="cls-1"/><path id="path14" fill="#a6a6a6" d="M354.2 163.7h17.7v44.7h-17.7z" class="cls-1"/></svg>
