<svg xmlns="http://www.w3.org/2000/svg" width="437" height="437"><defs id="defs101"><style id="style99">.cls-2{fill:#26367a}</style></defs><path id="path103" fill="#26367a" d="M0 114.4l23.3 13.1 156 88a2.2 2.2 0 0 1 1.4 2.2v55.7c0 1.3-.2 1.7-1.6 1.7H70.9a1.8 1.8 0 0 1-2-1.2L.5 115.7l-.5-1.3zm109 116.8v-.2h33c.7 0 1.3.2 1.3-1a67 67 0 0 0-1.5-15.7 37.2 37.2 0 0 0-26-29 48.6 48.6 0 0 0-21.4-1.8 38.4 38.4 0 0 0-34.2 28.1 53 53 0 0 0 .3 32.6 37.5 37.5 0 0 0 23 24.5 49 49 0 0 0 16 3.2c9.1.4 17.9-.9 26-5.2a29.6 29.6 0 0 0 16-20.4c.4-1.7.4-1.7-1.5-1.7h-13c-1.7 0-2.4.4-2.3 2a6.3 6.3 0 0 1-.8 2.6 15.9 15.9 0 0 1-6.4 7 28.5 28.5 0 0 1-13.3 4c-12.3.8-22-5.3-26.7-16.7a42.9 42.9 0 0 1-2.6-10.8c-.1-1.2 0-1.6 1.4-1.6H109zm54.3 9.7h8.1c1.3 0 3 .5 3.8-.3.8-.8.2-2.5.3-3.8 0-1-.3-1.2-1.3-1.2H155c-1.3 0-3-.4-3.7.2-.7.7-.1 2.5-.3 3.8-.1 1.1.4 1.3 1.4 1.3h11z" class="cls-2"/><path id="path105" fill="#26367a" d="M255.3 224.5l-8.5 21.1-11.2 28.1a1.6 1.6 0 0 1-1.9 1.3h-11.2a1.9 1.9 0 0 1-2.2-1.5l-18.8-48.1c-.1-.4-.1-.8-.5-1-.4.3-.2.8-.2 1.1v48c0 1.2-.2 1.6-1.5 1.6h-8.5c-.8 0-1-.2-1-1.1v-56.6c0-.8.1-1 1-1h15c1 0 1.1.6 1.4 1.3l15 36.3 6 14.8.6-1.7 20.3-49.4a1.6 1.6 0 0 1 1.8-1.3h14.4c1 0 1.4.2 1.4 1.3V274c0 1.1-.4 1.3-1.4 1.2H257c-1.2 0-1.7-.2-1.6-1.5v-33.9-14-1.2z" class="cls-2"/><path id="path107" fill="#26367a" d="M350.3 275h-10.8c-.8 0-1-.3-1.4-1l-6.6-13a1.6 1.6 0 0 0-1.7-1h-35.4a1.8 1.8 0 0 0-2 1.2l-6.3 12.7a1.8 1.8 0 0 1-2 1.2h-10.4c-.2-.5.1-.7.2-1l31-56.8a1.6 1.6 0 0 1 1.7-1h10.7a1.5 1.5 0 0 1 1.6.8l31.2 57.3a3.5 3.5 0 0 1 .2.6zm-53.7-21.6h29.3c1.5 0 1.5 0 .8-1.4l-14.1-26.6c-.2-.3-.2-.8-.8-.9z" class="cls-2"/><path id="path109" fill="#26367a" d="M236.8 287H38.6c-.7 0-1.7.5-2-.3a10.5 10.5 0 0 1 0-3.2c0-.3.4-.3.7-.3H435.2c.6 0 1.5-.4 1.7.4a12.3 12.3 0 0 1 0 3.2c0 .3-.4.2-.6.2z" class="cls-2"/><path id="path111" fill="#26367a" d="M360.6 216.4h11.7c.6 0 1 .5 1.3.9l19.1 20c.8.8 1.2.7 2 0l19-19.9a2.8 2.8 0 0 1 2.3-1h10.5c.2.6-.3.8-.6 1l-25.1 26.2c-.8.8-.8 1.2 0 2l26.6 28 1 1.2c-.3.5-.8.2-1.1.2h-9.6a2.5 2.5 0 0 1-2.1-.8l-21.8-23c-.8-1-1.2-1-2 0l-21.9 23a2.7 2.7 0 0 1-2.2.9h-10.6c-.1-.6.3-.8.5-1q14-14.7 28.2-29.3c.8-.9.7-1.3 0-2.1l-24.5-25.5-.7-.8z" class="cls-2"/><path id="path113" fill="#26367a" d="M316 315.3h-5.6c-.7 0-1 .2-.8 1a4.8 4.8 0 0 0 3.8 4c2.4.5 4.3-.3 5.5-2.1a4.6 4.6 0 0 1 3-.4c.3.2.2.5 0 .7a5.1 5.1 0 0 1-2.9 3.1 10.3 10.3 0 0 1-8.8 0c-3-1.5-4.4-4.7-3.8-8.4a7.2 7.2 0 0 1 6.3-6.2 10.1 10.1 0 0 1 5.6.7 7.2 7.2 0 0 1 4.2 7c0 .6-.4.7-1 .7H316zm-1.7-2.1h4c.6 0 1 0 .7-.9a4.9 4.9 0 0 0-9.3 0c-.1.6 0 .9.7.9h3.9z" class="cls-2"/><path id="path115" fill="#26367a" d="M396 306.9a12.3 12.3 0 0 1 3.1.4 5.1 5.1 0 0 1 2.4 1.2 3.2 3.2 0 0 1 1 2.3c0 .2-.4.3-.6.2-1-.2-2 .6-2.8-.8-.9-1.7-5.5-1.7-6.6-.1a1.4 1.4 0 0 0 .8 2.2l3.6.9a36.6 36.6 0 0 1 3.7 1.1c3.2 1 3 4.8 1 6.4a6.6 6.6 0 0 1-2.7 1.4 12.5 12.5 0 0 1-7-.2 4.5 4.5 0 0 1-3.2-3.4c-.2-.7 0-.9.7-.9 1 .1 2.4-.4 2.7 1.3 0 .5.6.8 1 1a7.3 7.3 0 0 0 5.2 0 2 2 0 0 0 1.5-2c0-1-.8-1.3-1.6-1.6-2.4-.7-4.8-1-7-2a3.1 3.1 0 0 1-2.2-3.5 3.8 3.8 0 0 1 2.2-3 8.7 8.7 0 0 1 4.7-1z" class="cls-2"/><path id="path117" fill="#26367a" d="M227.8 309a7.7 7.7 0 0 1 6.2-2c3 .2 4.7 1.8 4.8 4.8v9.4c0 .7-.2.9-.9 1-2.2 0-2.2 0-2.2-2.2v-7.4c0-2.9-1.5-4-4.3-3.4a7.6 7.6 0 0 0-3.1 1.8 1.6 1.6 0 0 0-.5 1.4v8.6c0 1.5-.9 1-1.7 1.1-.7 0-1.5.3-1.5-1v-13c0-.7.2-1 1-1 1.2.2 2.6-.4 2.2 2z" class="cls-2"/><path id="path119" fill="#26367a" d="M79.3 306.9c2.6 0 5 .6 6.5 3.2.8 1.4.6 1.5-1 1.6a1.9 1.9 0 0 1-2.2-1.2c-1.2-2.3-5.6-2-7.3.3a7.6 7.6 0 0 0 0 7.7 4.6 4.6 0 0 0 7.6-.4 4.5 4.5 0 0 1 3.1-.4c.3.3.1.6 0 .8a5.2 5.2 0 0 1-3.3 3.4 9.9 9.9 0 0 1-7.3-.1c-3.2-1.4-4.7-4.5-4.2-8.6a7 7 0 0 1 6.4-6.2l1.7-.1z" class="cls-2"/><path id="path121" fill="#26367a" d="M156.2 314.7v6.4c0 .9-.3 1-1.2 1-2.4 0-2 .3-2-2v-11.5c0-1.4.6-1.4 1.6-1.4s1.6.2 1.6 1.5c-.2 2 0 4 0 6z" class="cls-2"/><path id="path123" fill="#26367a" d="M154.6 304.4c-1.4.4-1.5-.4-1.6-1.5 0-1.4.6-1.4 1.7-1.4 1 0 1.6.1 1.6 1.5 0 1.3-.6 1.7-1.7 1.4z" class="cls-2"/><path id="path125" fill="#26367a" d="M100.6 219.3H76.3c-1 0-1.4-.1-1.1-1.3a41 41 0 0 1 2.8-8.8A23 23 0 0 1 97.6 195c9-.9 16.8 1.6 22.5 9a33 33 0 0 1 5.9 14.2c.2 1.2-.6.9-1.2.9h-24.2z" class="cls-2"/></svg>
