<svg xmlns="http://www.w3.org/2000/svg" width="422.4" height="422.4"><defs id="defs87"><style id="style85">.cls-2{fill:#c85454}</style></defs><path id="path89" fill="#c85454" d="M254.8 230.8c-1.2-.8-1.4-2-1.6-3.5a92.2 92.2 0 0 1-.2-10v-.6-.4-20.8a3.5 3.5 0 0 1 1.7-2.8c.6-.3 1-.7.9-1.4-.2-.6-.9-.6-1.4-.6a50.2 50.2 0 0 0-6.4.2 1.5 1.5 0 0 0-1.4 1.1c-.8 2.2-1.8 4.4-2.7 6.5l-9.7 23c-.1.3-.1.8-.6.8-.4 0-.5-.5-.6-.8l-1.7-4q-5.5-12.6-10.8-25.3c-.3-.5-.5-1-1.2-1-2.3.1-4.6-.4-7-.2-.5 0-1.2-.3-1.4.4-.3.7.3 1 .8 1.4a4 4 0 0 1 1.9 3.2v31.9a3.8 3.8 0 0 1-2.1 3.2 1 1 0 0 0-.7 1.1c.2.6.7.6 1.1.6h6.7c.4 0 .8 0 1-.5a.9.9 0 0 0-.5-1.2c-2-1-2.5-3-2.5-5v-25.7a2 2 0 0 1 .2-1.4 17 17 0 0 1 1.6 3.5l5.7 13.2c2.5 5.6 4.5 11.4 7.4 16.8.1.3.2.8.8.8.5 0 .7-.4.8-.9l3.4-8.7 10.5-24.3c.8.4.6 1.1.6 1.7l.1 26c-.2 1.3-.3 2.7-1.7 3.5-.6.3-1.3.7-1 1.6.2.9 1 .6 1.6.6 1.4 0 2.8-.2 4.1-.1l3.7.1a1.2 1.2 0 0 0 1.3-.7c.3-.8-.3-1-.7-1.3zm-41.1-34.3a1 1 0 0 0-.1-.3 1 1 0 0 1 0 .3zm0 .7a1.3 1.3 0 0 1 0-.4 1.3 1.3 0 0 0 0 .4 2.3 2.2 0 0 1 0 .3 2.3 2.2 0 0 0 0-.3zm34 1.2v-.5.5a2.6 2.6 0 0 1 .2 1.1 2.6 2.6 0 0 0-.1-1z" class="cls-2"/><path id="path91" fill="#c85454" d="M364.8 191h-6.3c-.5 0-1-.2-1.3.5-.1.6.3 1 .8 1.2a4 4 0 0 1 2 2.9 12 12 0 0 1 .2 3.2v24.5c-1.9-1.7-3.2-3.3-4.7-4.8-2-2-3.7-4.3-5.5-6.4l-9-10.9-6.7-8c-.6-.8-1-2-2-2-2.3 0-4.7-.4-7-.3-.6 0-1 0-1.1.7a1 1 0 0 0 .6 1c1.9.9 2.3 2.5 2.3 4.3V227a4.2 4.2 0 0 1-2 4c-.5.3-1 .5-.8 1.2.2.7.8.6 1.4.6h6.2c.5 0 1 .1 1.2-.4.2-.6-.2-1-.7-1.3-1.7-1-2.3-2.5-2.3-4.4V200a2.3 2.3 0 0 1 .2-1.2c.2-.1.3 0 .4.2l6.2 7 3.8 4.4 6 7 6.4 7.1c2.7 3.1 5.2 6.4 8.5 9 .4.3 1 .7 1.4.5.5-.2.2-.9.2-1.3v-35.3c0-1.9.4-3.6 2.1-4.6a1 1 0 0 0 .6-1.2c-.2-.7-.7-.6-1.1-.6z" class="cls-2"/><path id="path93" fill="#c85454" d="M190.6 230.8a6.4 6.4 0 0 1-2.7-3.3l-2.2-5.1-12.9-31.7c-.2-.4-.3-1-1-1-.8 0-.9.6-1 1l-5.2 13.2-9.1 23.5c-.6 1.4-1.2 3-2.7 3.6-.5.3-.5.8-.4 1.2 0 .5.5.6.8.6h5.9c.5 0 1 0 1.2-.6.2-.7-.1-1-.6-1.2a2.5 2.4 0 0 1-1-3.1l5.1-14c.1-.2.2-.5.4-.4.3 0 .3.2.3.3.8 1.6 2.1 2 3.7 2h6.7a1.3 1.3 0 0 1 1.4.9l4.3 11.5a2.2 2.2 0 0 1-.6 2.9c-.5.3-.8.7-.6 1.3.3.5.8.4 1.3.4h8a1.6 1.6 0 0 0 .5 0c.4-.1 1 0 1-.7a1 1 0 0 0-.6-1.3zM171.8 213h-5.7c-.6 0-1-.1-.7-.8L170 200a121 121 0 0 1 5.9 13z" class="cls-2"/><path id="path95" fill="#c85454" d="M421.7 230.7a6.2 6.2 0 0 1-2.6-3.2l-4.3-10.4-10.7-26.3c-.3-.5-.4-1-1.2-1.1-.7 0-.9.7-1 1.1l-4.7 12-8.5 21.9c-1 2.4-1.4 5.1-4 6.5-.4.2-.2.7-.2 1 0 .3.4.5.8.5h6.4a.7.7 0 0 0 .8-.7 1 1 0 0 0-.4-1c-1.5-1.2-1.7-2.1-1-4l4.8-12.8c0-.3 0-.9.5-.8.4 0 2.5 2.4 4 2.3 2.2-.2 4.4 0 6.6 0a1.3 1.3 0 0 1 1.5.9l4.3 11.4c.5 1.1.5 2.2-.7 3a1 1 0 0 0-.4 1.3c.1.5.6.4 1 .4h8.3c.6 0 1.1 0 1.4-.6a1 1 0 0 0-.7-1.4zM406.2 213h-8.7c-.6 0-1 0-.8-.8l4.5-12.2h.3l3.5 7.8c.7 1.4 1.2 3 1.8 4.4.3.6.1.8-.6.8z" class="cls-2"/><path id="path97" fill="#c85454" d="M36.9 190.7h-6c-.5 0-.9 0-1 .5-.2.5.1.8.5 1a2.5 2.5 0 0 1 1.1 3.4l-2.7 7.6-5.3 14.3-2.2 6H21c-1.3-2.9-2.6-5.7-3.7-8.5Q14 207 11 199a20 20 0 0 1-1.7-5 1.2 1.2 0 0 1 .7-1.3 1.4 1.3 0 0 1 .2-.3c.5-.3.9-.6.7-1.2-.2-.6-.8-.4-1.3-.4H1.3c-.5 0-1.1 0-1.3.5a1.1 1.1 0 0 0 .7 1.4 7.6 7.6 0 0 1 3 4l6 14.5 6 14.7 2.9 7.1a1.1 1.1 0 0 0 1.1.8c.4 0 .7-.3.8-.8 2.4-6 4.8-12 7-18l7.5-19.3a6 6 0 0 1 2.4-3.2c.5-.2.8-.5.7-1-.1-.6-.7-.7-1.2-.7z" class="cls-2"/><path id="path99" fill="#c85454" d="M10.1 193a.2.2 0 0 0 .1 0v-.3H10l.1.2z" class="cls-2"/><path id="path101" fill="#c85454" d="M137.8 188.6c-.7-.3-1 .1-1.3.5a6.5 6.5 0 0 1-3 1.9H105c-.7 0-1.3-.1-1.4-.9-.2-.7-.6-.6-1-.6-.5 0-.7.3-.8.8l-.7 5.5c0 .5-.1 1.2.5 1.4.6.2 1-.3 1.3-.8a4.7 4.7 0 0 1 4.2-2.2h8.6c1 0 1.4.3 1.4 1.4v30.8c0 2-.5 3.6-2.3 4.6-.4.2-.7.4-.7 1a1 1 0 0 0 1 .8 6.3 6.3 0 0 0 2 0 12.4 12.4 0 0 1 4.6 0 7.5 7.5 0 0 0 2.2 0c.6 0 1.1-.2 1.3-.9 0-.7-.4-.8-.8-1a4.2 4.2 0 0 1-2.2-4v-31.5c0-1 .3-1.2 1.1-1.2h9c1.4 0 2.6.2 3.5 1.5a1 1 0 0 0 1 .5c.5-.1.6-.6.7-1a46 46 0 0 1 .7-5.2c0-.5.2-1.1-.5-1.4zm-4.5 2.6a2.8 2.8 0 0 1-1.2.2 2.8 2.8 0 0 0 1.2-.2l.2-.2z" class="cls-2"/><path id="path103" fill="#c85454" d="M75.5 230.9c-2-1-2.3-2.8-2.4-4.7v-29c0-1.9.5-3.6 2.5-4.6a1 1 0 0 0 .5-1.2c-.1-.5-.6-.5-1-.5h-8.8c-.4 0-1 0-1.1.5-.2.6.1 1 .7 1.3a4.3 4.3 0 0 1 2.2 4.1v29.7c0 1.9-.5 3.6-2.4 4.5-.8.4-.8 1 0 1.5a1.7 1.7 0 0 0 1 .2 43.1 43.1 0 0 1 8 0 1 1 0 0 0 .5 0c.4-.2 1-.3 1-.9a1 1 0 0 0-.7-1z" class="cls-2"/><path id="path105" fill="#c85454" d="M294.8 231a4.4 4.4 0 0 1-2.3-4.2h-.2.2v-30.2c.2-1.6.6-3.1 2.2-3.9a1 1 0 0 0 .6-1.2c-.1-.6-.6-.5-1.1-.5h-8.8a1 1 0 0 0-1 .6.7.7 0 0 0 .4 1c2.5 1 2.7 3.4 2.7 5.5V224a31.9 31.9 0 0 1-.3 4 3.7 3.7 0 0 1-2 3c-.4.1-1 .4-.8 1 .2.7.7.8 1.3.9h.9c1.5 0 3-.5 4.4-.3a16.6 16.6 0 0 0 3.3.2 1.1 1.1 0 0 0 1.1-.7c.3-.6-.2-.9-.6-1z" class="cls-2"/></svg>
