<svg xmlns="http://www.w3.org/2000/svg" width="178.96" height="178.96"><path fill="#019ab3" d="M0 89.38a89.48 89.48 0 1 1 88 89.57A89.3 89.3 0 0 1 0 89.38zm101.95-3.33c-.91-.77-1.66-1.38-2.37-2L83.09 69.42a3.11 3.11 0 0 0-2.13-1.13h-7.49c-1.19 0-1.33.47-.77 1.34 1.44 2.23 1.42 4.7 1.41 7.23q-.06 12.83 0 25.66c0 2.38-.05 4.68-1.39 6.77-.63 1-.43 1.46.86 1.45 3.86 0 7.72-.07 11.58 0 1.68 0 1.56-.64.9-1.73a10.79 10.79 0 0 1-1.26-5.7c-.09-5.2.41-10.41-.3-15.61-.06-.46-.28-1.12.38-1.37s1.13.28 1.57.68c4.26 3.76 8.32 7.77 12.83 11.19 2.83 2.15 3.26 4.65 2.86 7.67a11.93 11.93 0 0 1-1 3.24c-.54 1.22-.29 1.6 1 1.59q5.45-.07 10.9 0c1.51 0 1.5-.61.86-1.62a10.68 10.68 0 0 1-1.32-6.1q.08-13.06 0-26.12c0-2.51-.09-5 1.39-7.22.74-1.12.16-1.41-1-1.4h-11.58c-1.21 0-1.55.45-.9 1.48 1.33 2.1 1.39 4.42 1.35 6.79.07 3.08.11 6.1.11 9.54zm-72.47-1.73h.05c0 3.33-.07 6.66 0 10a17.21 17.21 0 0 0 2.72 9c4.2 6.5 12.87 9.33 21.63 7.06 7.4-1.91 12.23-7.78 12.6-15.88.28-6 .13-12 .1-17.94 0-2.37 0-4.7 1.33-6.78.56-.87.62-1.53-.8-1.51q-6.13.07-12.27 0c-1.49 0-1.23.7-.73 1.52a11.34 11.34 0 0 1 1.34 6.34c-.07 5.38 0 10.75 0 16.13a14.12 14.12 0 0 1-.39 3.83 6.71 6.71 0 0 1-6.66 5.23c-3.64.12-6.09-1.48-7.24-4.66a13.77 13.77 0 0 1-.59-4.71V76.73c0-2.37 0-4.7 1.31-6.8.67-1.07.45-1.64-.95-1.62q-5.91.06-11.81 0c-1.31 0-1.72.37-1 1.53a10.65 10.65 0 0 1 1.33 6.33c-.05 2.7.03 5.42.03 8.15zM151.27 99.1l-.38-.52c-4.33 3.75-9.47 2.77-14.42 2.88-.91 0-1.83-.08-2.72 0-1.57.18-2.07-.4-2-2 .08-7.5.06-15 0-22.5 0-2.52 0-5 1.39-7.23.81-1.3.09-1.48-1.07-1.47q-5.79.06-11.59 0c-1.38 0-1.87.34-1.06 1.67a10.4 10.4 0 0 1 1.21 5.69q-.07 13.4 0 26.82c0 2.37 0 4.7-1.31 6.8-.68 1.1-.24 1.46.92 1.46h27.5c.9 0 1.41-.25 1.58-1.18.62-3.46 1.29-6.94 1.96-10.42z"/></svg>
