<svg xmlns="http://www.w3.org/2000/svg" width="235" height="235"><defs id="defs4"><style id="style2">.cls-2{fill:#050406}.cls-4{fill:#060406}.cls-5{fill:#060507}</style></defs><path id="path6" fill="#b42876" d="M72.88 50.43c4.48-8.18 11.23-12.33 20.27-11.94 10.52.45 18.19 5.78 22.5 15.34 4.6 10.23 3.32 20.25-3.33 29.11-10.12 13.49-22.42 24.85-36 34.87-2.4 1.77-4.46 1.69-6.82-.11-13.61-10.4-26.07-22-36.44-35.67-6-7.85-7.06-16.91-3.63-26.2 3.7-10 11-16 21.73-17.26 9.8-1.11 16.74 3.53 21.72 11.86z"/><path id="path8" fill="#050406" d="M171.49 69.44c0 5.91.07 11.83 0 17.74 0 1.77.42 2.45 2.25 2.27a40.26 40.26 0 0 1 4.94 0 7.08 7.08 0 0 1 7 7.34c0 3.85-2.81 6.53-6.91 6.63-2.31.06-5.51-.79-6.71.4-1.58 1.55-.38 4.75-.51 7.24a22.81 22.81 0 0 0 .06 3.2c.25 2.88-.67 5.17-3.3 6.57a8.35 8.35 0 0 1-8.58-.13 5.13 5.13 0 0 1-2.66-4.83c.06-3-.27-6 .09-9 .38-3.17-.93-3.53-3.64-3.49-9.4.16-18.81.07-28.22.06-7.2 0-9.8-4.48-6.16-10.71q13.1-22.4 26.3-44.74a22.4 22.4 0 0 1 4.7-5.88c4-3.43 8.69-4.44 13.54-2.34a12.48 12.48 0 0 1 7.77 11.67c.2 6 0 12 0 18zm-14.37 3.23V57.86c0-.77.48-1.9-.8-2.16-.92-.19-1.26.65-1.66 1.32l-18.18 30.63c-.83 1.39-.64 1.8 1 1.79 5.9 0 11.8-.07 17.72 0 1.54 0 2-.47 2-2-.14-4.9-.1-9.84-.08-14.78z" class="cls-2"/><path id="path10" fill="#030204" d="M207.9 38.79c5.54 0 11.08.26 16.59-.06 7.46-.44 11.62 4.78 10.25 12.79a18.53 18.53 0 0 1-1.55 4.66c-9.54 20.35-19.17 40.66-28.67 61-1.34 2.88-3.28 4.45-6.41 4.49a7.77 7.77 0 0 1-7.45-4.13 6.05 6.05 0 0 1-.1-6q11.94-24.77 23.74-49.61a27.16 27.16 0 0 0 1.2-2.63c1.19-3.37-.45-5.87-4-5.9-7.27-.06-14.54 0-21.82 0-4.65 0-7.52-2.78-7.58-7.27-.06-4.49 2.83-7.32 7.5-7.34 6.09-.02 12.2 0 18.3 0z"/><path id="path12" fill="#060406" d="M103.57 174.66a15 15 0 0 0 2.95 7.11c4 5.4 10.73 5.81 14.77.44 2.84-3.77 6.38-3.1 9.94-2.75 2.1.21 2.75 2.6 1.67 4.91-3.57 7.64-13.51 12.79-21.8 11.29-11.62-2.11-20.03-13.51-19.03-25.8.9-11.21 7.67-20.17 17.05-22.56 12.39-3.15 25.08 5.48 26.86 18.29.05.38.08.77.12 1.16.74 6.58-.26 7.69-6.9 7.7h-25a2.36 2.36 0 0 0-.63.21zm10.36-7.39h9c1.24 0 1.86-.27 1.48-1.63-1.13-4-3.24-7.28-7.38-8.64-5.27-1.73-12.28 3.2-13.06 9-.2 1.51.7 1.27 1.56 1.27z" class="cls-4"/><path id="path14" fill="#060507" d="M151.19 174.44a14.83 14.83 0 0 0 3.12 7.56c4 5.12 10.45 5.55 14.39.43 2.82-3.67 6.26-3.37 9.88-3 2.43.22 3.14 2.6 1.8 5.22a20.91 20.91 0 0 1-27.4 9.25c-13.44-6.54-17.6-25.39-8.37-38 5.95-8.12 15.54-11.19 24.68-7.91a22.57 22.57 0 0 1 14.58 22.16c-.2 3-1.45 4.23-4.7 4.24h-25zm10.6-7.16h8.74c1.13 0 1.84 0 1.56-1.56a11.88 11.88 0 0 0-8.24-8.9c-5.86-1.54-11.12 4.45-12.27 9.47-.31 1.37.84 1 1.49 1 2.92.01 5.83-.01 8.74-.01z" class="cls-5"/><path id="path16" fill="#060507" d="M15.77 195.98c-6.36-.06-11.33-1.66-14.65-6.73a5.93 5.93 0 0 1-.08-6.82c1.6-2.61 3.88-3.06 6.34-1.17 1.9 1.47 3.64 3.19 5.89 4.2 3 1.36 5.35 1 6.48-.91 1.32-2.26.76-4.56-2-6.43-3-2-6.17-3.6-9.27-5.37-8.74-5-10.11-15.63-2.9-22.72 3.79-3.71 8.46-4.1 13.26-3 3.59.82 6.73 2.82 9.88 4.74 3.15 1.92 2.66 7.19-.12 9.31a3.18 3.18 0 0 1-3.8.07c-2.28-1.28-4.53-2.6-6.87-3.74-2.86-1.4-4.74-.91-5.9 1.39-1.26 2.54-.15 4.13 2 5.5 4.44 2.76 8.88 5.49 13.06 8.64 4.47 3.37 5.7 7.5 4.23 12.75-1.55 5.51-5.07 8.77-10.7 9.7-1.82.3-3.66.45-4.85.59z" class="cls-5"/><path id="path18" fill="#050406" d="M43.29 176.32c0-4.07-.15-8.14.06-12.2.12-2.42-.58-3.25-3-3-2.72.3-4.65-1.13-5.78-3.53a6.32 6.32 0 0 1 1-7.07 6.11 6.11 0 0 1 5.76-2.07c1.65.18 2.19-.43 2.07-2.08a39.13 39.13 0 0 1 0-5.81c.26-3.45 2.9-6.1 5.88-6.07 2.98.03 5.7 2.83 5.87 6.41v2c0 1.65-.5 3.54.16 4.87.65 1.33 2.78.37 4.23.69a6.49 6.49 0 0 1 4.94 6.93c-.25 3.23-2.62 5.89-5.83 5.64s-3.63 1.15-3.57 3.92c.18 7.94 0 15.88.08 23.83a6.89 6.89 0 0 1-2.82 6 4.91 4.91 0 0 1-5.48.46 6.38 6.38 0 0 1-3.51-5.93c-.1-4.27-.06-8.63-.06-12.99z" class="cls-2"/><path id="path20" fill="#050406" d="M191.98 176.15c0-4.26-.08-8.53 0-12.79 0-1.74-.36-2.31-2.22-2.29-4.7 0-7.21-2.34-7.15-6.41.06-3.86 2.68-6.26 7.1-6.21 1.76 0 2.44-.37 2.26-2.22a39.88 39.88 0 0 1 0-5.52c.15-3.41 2.69-6.15 5.7-6.26 3-.11 5.7 2.49 6 5.92a26.51 26.51 0 0 1 0 5.22c-.24 2.25.48 2.92 2.79 2.87a6.25 6.25 0 0 1 6.16 8.7 5.76 5.76 0 0 1-6.4 3.94c-2-.21-2.6.46-2.56 2.53.13 7.94.05 15.89.05 23.83v2.32c-.31 3.48-2.84 6.09-5.87 6.1-3.03.01-5.81-2.84-5.88-6.37-.05-4.36.02-8.86.02-13.36z" class="cls-2"/><path id="path22" fill="#070608" d="M2.27 91.77V70.56c0-4.82 3.28-8.29 7.78-8.36 4.5-.07 8.14 3.37 8.16 8.31q.08 21.5 0 43a7.86 7.86 0 0 1-8.25 8.19c-4.53-.12-7.67-3.53-7.68-8.43-.03-7.12-.01-14.33-.01-21.5z"/><path id="path24" fill="#040305" d="M78.39 154.15c2.2-1.81 4-3.49 6.05-4.94 2.59-1.87 5.44-1.2 7.23 1.49 1.93 2.91 1.53 6.29-1 7.94-3 1.93-6.38 3.21-9.26 5.39a6.9 6.9 0 0 0-3 6.16c.15 6.19.07 12.39 0 18.59 0 4.18-2.6 7.24-6 7.16-3.4-.08-5.72-3-5.73-7.07v-36c0-4.23 2.5-7.27 5.87-7.24 3.36.03 5.7 3 5.85 7l-.01 1.52z"/><path id="path26" fill="#060406" d="M232.57 156.76v14.83c0 4.41-2.71 7.56-6.34 7.59-3.63.03-6.35-3.09-6.37-7.5v-30c0-4.39 2.7-7.61 6.28-7.63 3.58-.02 6.38 3.17 6.43 7.53v15.18z" class="cls-4"/><path id="path28" fill="#060507" d="M19.63 48.59a9.41 9.41 0 0 1-9.37 9.4 9.57 9.57 0 0 1-9.5-9.64 9.43 9.43 0 1 1 18.87.23z" class="cls-5"/><path id="path30" fill="#080708" d="M226.57 196.59a7.56 7.56 0 0 1 .07-15.12 7.56 7.56 0 1 1-.07 15.12z"/></svg>
