<svg xmlns="http://www.w3.org/2000/svg" width="236.8" height="236.8"><defs id="defs4"><style id="style2">.cls-9{fill:#a6a6a6}</style></defs><path id="path6" fill="#a6a6a6" d="M19.8 49a9.5 9.5 0 0 1-9.5 9.4 9.6 9.6 0 0 1-9.5-9.7 9.5 9.5 0 1 1 19 .3z" class="cls-9"/><path id="path8" fill="#a6a6a6" d="M73.4 50.8c4.6-8.2 11.4-12.4 20.5-12 10.6.5 18.3 5.8 22.6 15.5a27.6 27.6 0 0 1-3.3 29.3 174.5 174.5 0 0 1-36.3 35.1c-2.4 1.8-4.5 1.7-6.8 0a192.9 192.9 0 0 1-36.8-36c-6-8-7-17-3.6-26.4a25 25 0 0 1 21.9-17.4c9.8-1.2 16.8 3.5 21.8 12z" class="cls-9"/><path id="path10" fill="#a6a6a6" d="M172.8 70v17.8c0 1.8.4 2.5 2.3 2.3a40.6 40.6 0 0 1 5 0 7.1 7.1 0 0 1 7 7.4c0 4-2.9 6.6-7 6.7-2.4 0-5.6-.8-6.8.4-1.6 1.6-.4 4.8-.5 7.3a23 23 0 0 0 0 3.2c.3 3-.6 5.2-3.3 6.6a8.4 8.4 0 0 1-8.6 0 5.2 5.2 0 0 1-2.7-5c0-3-.3-6 .1-9 .4-3.2-1-3.6-3.7-3.5h-28.4c-7.2 0-9.9-4.5-6.2-10.8l26.5-45a22.6 22.6 0 0 1 4.8-6c4-3.4 8.7-4.4 13.6-2.3a12.6 12.6 0 0 1 7.8 11.7c.2 6 0 12.1 0 18.2zm-14.5 3.2v-15c0-.7.5-1.8-.8-2-1-.3-1.2.6-1.6 1.2l-18.3 31c-.9 1.3-.7 1.7 1 1.7h17.8c1.6 0 2-.5 2-2V73.2z" class="cls-9"/><path id="path12" fill="#a6a6a6" d="M209.5 39.1c5.6 0 11.2.3 16.7 0 7.5-.5 11.7 4.8 10.3 12.8a18.7 18.7 0 0 1-1.5 4.7l-29 61.5c-1.3 2.9-3.2 4.5-6.4 4.5a7.8 7.8 0 0 1-7.5-4.1 6.1 6.1 0 0 1 0-6.1l23.8-50a27.4 27.4 0 0 0 1.3-2.7c1.2-3.4-.5-5.9-4.1-6h-22c-4.7 0-7.6-2.7-7.6-7.2-.1-4.6 2.8-7.4 7.5-7.4h18.5z" class="cls-9"/><path id="path14" fill="#a6a6a6" d="M104.4 176a15 15 0 0 0 3 7.2c4 5.4 10.8 5.8 14.9.4 2.8-3.8 6.4-3.1 10-2.8 2.1.2 2.8 2.7 1.7 5a21.6 21.6 0 0 1-22 11.4 24.4 24.4 0 0 1-19.3-26c1-11.3 7.8-20.4 17.2-22.8a22.1 22.1 0 0 1 27 18.5l.2 1.1c.7 6.7-.3 7.8-7 7.8H105a2.4 2.4 0 0 0-.6.2zm10.4-7.4h9c1.3 0 2-.3 1.6-1.7-1.2-4-3.3-7.3-7.5-8.7-5.3-1.7-12.3 3.2-13.1 9-.2 1.6.7 1.3 1.6 1.3z" class="cls-9"/><path id="path16" fill="#a6a6a6" d="M152.4 175.8a15 15 0 0 0 3.1 7.6c4 5.1 10.5 5.6 14.5.4 2.8-3.7 6.3-3.4 10-3 2.5.2 3.2 2.6 1.8 5.2a21 21 0 0 1-27.6 9.3c-13.5-6.6-17.7-25.6-8.4-38.3 6-8.1 15.6-11.2 24.8-8a22.8 22.7 0 0 1 14.7 22.5c-.1 3-1.4 4.2-4.7 4.2h-25.2zm10.7-7.2h8.7c1.2 0 1.9 0 1.6-1.6a12 12 0 0 0-8.3-9c-5.9-1.6-11.2 4.5-12.3 9.5-.4 1.4.8 1 1.5 1h8.7z" class="cls-9"/><path id="path18" fill="#a6a6a6" d="M15.9 197.5c-6.4 0-11.4-1.7-14.8-6.8a6 6 0 0 1 0-6.9c1.6-2.6 3.9-3 6.3-1.1 2 1.4 3.7 3.2 6 4.2 3 1.4 5.4 1 6.5-1 1.3-2.2.8-4.5-2-6.4-3-2-6.3-3.6-9.4-5.4-8.8-5-10.2-15.8-3-23 3.9-3.7 8.6-4 13.4-3 3.6 1 6.8 3 10 4.9 3.2 2 2.7 7.2-.1 9.3a3.2 3.2 0 0 1-3.8.1c-2.3-1.3-4.6-2.6-7-3.7-2.8-1.5-4.7-1-5.9 1.4-1.3 2.5-.1 4.1 2 5.5 4.5 2.8 9 5.5 13.2 8.7 4.5 3.4 5.8 7.6 4.3 12.9a12.6 12.6 0 0 1-10.8 9.7l-5 .6z" class="cls-9"/><path id="path20" fill="#a6a6a6" d="M43.6 177.7c0-4.1-.1-8.2 0-12.3.2-2.5-.5-3.3-3-3-2.6.3-4.6-1.2-5.7-3.6a6.4 6.4 0 0 1 1-7.1 6.2 6.2 0 0 1 5.8-2c1.6.1 2.2-.5 2-2.2a39.4 39.4 0 0 1 0-5.8c.3-3.5 3-6.2 6-6.2s5.7 2.9 5.9 6.5v2c0 1.7-.5 3.6.2 5 .6 1.3 2.8.3 4.2.6a6.5 6.5 0 0 1 5 7c-.2 3.3-2.6 6-5.9 5.7-3.2-.3-3.6 1.1-3.6 4 .2 8 0 16 .1 24a7 7 0 0 1-2.8 6 5 5 0 0 1-5.5.5 6.4 6.4 0 0 1-3.6-6v-13.1z" class="cls-9"/><path id="path22" fill="#a6a6a6" d="M193.4 177.5v-12.8c0-1.8-.3-2.4-2.2-2.3-4.7 0-7.3-2.4-7.2-6.5 0-3.9 2.7-6.3 7.2-6.3 1.7 0 2.4-.3 2.2-2.2a40.2 40.2 0 0 1 0-5.6c.2-3.4 2.8-6.2 5.8-6.3 3 0 5.7 2.5 6 6a26.7 26.7 0 0 1 0 5.3c-.2 2.2.5 3 2.9 2.9a6.3 6.3 0 0 1 6.2 8.7 5.8 5.8 0 0 1-6.5 4c-2-.2-2.6.5-2.6 2.6.2 8 0 16 0 24v2.3c-.2 3.5-2.8 6.2-5.8 6.2s-5.9-2.9-6-6.4v-13.6z" class="cls-9"/><path id="path24" fill="#a6a6a6" d="M2.3 92.5V71c0-4.9 3.3-8.3 7.8-8.4 4.6-.1 8.2 3.4 8.2 8.4v43.3a8 8 0 0 1-8.3 8.3c-4.5-.1-7.7-3.6-7.7-8.5V92.5z" class="cls-9"/><path id="path26" fill="#a6a6a6" d="M79 155.3c2.2-1.8 4-3.5 6-5 2.7-1.9 5.6-1.2 7.4 1.5 2 3 1.5 6.3-1 8-3 2-6.4 3.2-9.3 5.4a7 7 0 0 0-3.1 6.2v18.8c0 4.2-2.6 7.2-6 7.2-3.4-.1-5.8-3-5.8-7.2V154c0-4.2 2.5-7.3 6-7.3 3.3 0 5.7 3 5.8 7.1v1.6z" class="cls-9"/><path id="path28" fill="#a6a6a6" d="M234.4 158v15c0 4.4-2.8 7.5-6.4 7.6-3.7 0-6.4-3.2-6.4-7.6v-30.2c0-4.4 2.7-7.6 6.3-7.7 3.6 0 6.4 3.2 6.5 7.6V158z" class="cls-9"/><path id="path30" fill="#a6a6a6" d="M228.3 198.1a7.6 7.6 0 0 1 0-15.2 7.6 7.6 0 1 1 0 15.2z" class="cls-9"/></svg>
