<svg xmlns="http://www.w3.org/2000/svg" width="413.7" height="413.7"><defs id="defs4"><style id="style2">.cls-5{fill:#030303}.cls-6{fill:#020202}</style></defs><path id="path6" fill="#2480b1" d="M311 141.2a12.3 12.3 0 0 0 3.2 1.4l8 3.3a3.2 3.2 0 0 0 2.2 0l9.6-2.6a2 2 0 0 1 1.3-.1l-4 6.3 6.3 2.6 7 2.9h-3.2a5.8 5.8 0 0 0-.8-.1l-11.7-.6c-.6 0-.8.3-1 .7l-5 8.4h-.4l-4.8-8.8a1.2 1.2 0 0 0-1.2-.8H313c-4.8-.2-9.5-.5-14.3-.5l.1-.2c.1 0 .3 0 .2-.3a55.6 55.6 0 0 0 6.4-1.7l8.1-2.2c1-.2.9-.5.5-1.2-1.1-2.2-2.5-4.2-3.4-6.5z"/><path id="path8" fill="#1c803e" d="M360.6 179.6l11.1-7.2v10.9a1.6 1.6 0 0 0 1.2 1.8l16.8 7 1 .6a46 46 0 0 1-6 .4c-4 .4-8 .6-12 .8-.8 0-1 .3-1 1l.1 17.6v.8c-.5-.1-.6-.5-.8-.8l-11.6-16.8a1.7 1.7 0 0 0-1.8-.8l-20.6 1.4h-1.4l5.8-3.8 9.9-6.7c.4-.2 1-.4.4-1.1l-6.5-9.4a1.6 1.6 0 0 0-.4-.3c-.3-1-1.2-1.6-1.5-2.6l16.9 7.1z"/><path id="path10" fill="#db6306" d="M343.2 172.4c.3 1 1.2 1.6 1.4 2.6-3 .3-5.9.1-8.9.2h-5.9a1 1 0 0 0-1 .7l-5.9 13.5c0 .3-.3.6-.5 1l-3.8-8.2-2.5-5.7a1.5 1.5 0 0 0-1.6-1l-20.7.4h-1.9a10.8 10.8 0 0 1 3.3-1.5l15.4-6.1c1.4-.6 1.5-.5.8-2l-3.1-6.9c0-.8-1.1-1.3-.6-2.2l8.2 3.5a61 61 0 0 0 6.6 2.7h.3l10-3.8a26.4 26.4 0 0 1 4.3-1.4l-2.6 5.4c-.5 1.3-1.5 2.5-1.7 4l.2.2a1.3 1.3 0 0 0 .7.5l9.5 4.1z"/><path id="path12" fill="#dbb820" d="M307.8 157.2c-.6 1 .5 1.5.5 2.2-4.8 0-9.6-.1-14.4-.4a2.8 2.8 0 0 0-2.5 1l-9.7 10c-.3.3-.6.9-1 .7-.5-.2-.3-.7-.4-1.1l-1.9-10.2c-.1-.8-.8-.6-1.3-.6l-21.6-.4H254a15.2 15.2 0 0 1 4-1.3l11.6-2.9 6.6-1.6c.7-.1.9-.4.8-1.1-.3-2.4-1-4.7-1.2-7 0-1 .3-.9.9-.6l11.6 5a4 4 0 0 0 2.6.2c4.4-1 8.8-2.2 13.1-3.3l2-.3-4 4a22.9 22.9 0 0 0-3 3.3l-.3.1v.5z"/><path id="path14" fill="#030303" d="M150.4 224.4v-12.2a11.7 11.7 0 0 1 0-1.7 3 3 0 0 1 3.3-2.8 3 3 0 0 1 3.1 3v22.5a3 3 0 0 1-1.9 3 3.4 3.4 0 0 1-4-1l-6.5-8.2-5.6-7.1c-.4.3-.2.7-.2 1v12c0 2.3-1.1 3.5-3.1 3.5s-3.3-1-3.3-3.3v-22a3 3 0 0 1 2-3.2 3.4 3.4 0 0 1 4 1.2l11.6 14.6z" class="cls-5"/><path id="path16" fill="#020202" d="M320 224.5v-13.4c0-2.4 1.4-3.7 3.8-3.4a2.8 2.8 0 0 1 2.5 3.2v22c0 1.5-.4 2.7-1.9 3.3a3.3 3.3 0 0 1-4-1l-7.7-9.6-4.7-6V232a10.8 10.8 0 0 1 0 2c-.4 1.8-1.7 2.6-3.7 2.4a2.8 2.8 0 0 1-2.7-3v-13.3-9a3 3 0 0 1 1.8-3.2 3.3 3.3 0 0 1 4 1l4.2 5.2 8.3 10.4z" class="cls-6"/><path id="path18" fill="#030303" d="M159.2 220a13 13 0 0 1 5.2-10c4.6-3.3 9.6-3.5 14.7-1.4 4.8 2 7 6.1 7.6 11.2a19 19 0 0 1-.5 7c-1.8 7.1-7.9 10.5-14.7 10-8-.7-12.4-7-12.3-16.7zm6.9 2a12.3 12.3 0 0 0 1 5.1 6 6 0 0 0 6 3.7 6 6 0 0 0 5.7-3.7 12 12 0 0 0 0-10.1 6 6 0 0 0-5.7-3.7 6 6 0 0 0-5.8 3.5 12.2 12.1 0 0 0-1.2 5.2z" class="cls-5"/><path id="path20" fill="#030303" d="M56.1 223.3a13.5 13.5 0 0 1-6 11.4 13.8 13.8 0 0 1-21.5-10 18.2 18.2 0 0 1 1.4-10.2 13.2 13.2 0 0 1 14.1-7.1c7.7 1.1 12 6.4 12 15.9zm-20.7-1.1a12.2 12.2 0 0 0 1 4.7 6.2 6.2 0 0 0 6 4 6 6 0 0 0 5.8-4 12 12 0 0 0 0-9.5 6.2 6.2 0 0 0-6-4.1 6.3 6.3 0 0 0-6 4 13.3 13.3 0 0 0-.8 4.9z" class="cls-5"/><path id="path22" fill="#030303" d="M19.8 219.4h3.6c2 .1 3.2 1.2 3.3 3.2.4 8.8-5.8 15-14.7 14.1-7.2-.8-11.7-6.4-12-14A14.9 14.9 0 0 1 4 211.7c4.1-4.4 9.2-5 14.7-3.7a10.7 10.7 0 0 1 4.3 2 5 5 0 0 1 1.7 2.2 3 3 0 0 1-.7 3.4 3.3 3.3 0 0 1-3.5.3l-1.6-1c-5-3.4-10.6-1-11.7 5.1a11 11 0 0 0 1.3 7.7 6.2 6.2 0 0 0 6.4 3.2 5.4 5.4 0 0 0 5-4c.3-1.3.3-1.4-1-1.4H16a2.8 2.8 0 0 1-3-2.9 2.7 2.7 0 0 1 2.7-3 37.6 37.6 0 0 1 4 0z" class="cls-5"/><path id="path24" fill="#030303" d="M74 220.7c4 1.3 5.7 4 5.4 7.7a8 8 0 0 1-6.7 7.5c-2.3.5-4.8.2-7.2.3h-4a3 3 0 0 1-3-3v-22a2.9 2.8 0 0 1 2.9-3.1 54.4 54.4 0 0 1 9.5 0 6.5 6.5 0 0 1 5.9 4.9c.9 3 .2 5.5-2.3 7.4-.2 0-.3 0-.4.3zm-9.1 6.8v2.3c0 .3 0 .6.5.6 1.7 0 3.5.2 5.2-.2a2.6 2.6 0 0 0 2.2-2.5 2.7 2.7 0 0 0-2-2.7 9 9 0 0 0-3-.3c-3 0-3 0-3 2.8zm0-11.3c0 2.7 0 2.7 2.5 2.7a8.2 8.2 0 0 0 1 0 2.4 2.4 0 0 0 2.3-2.6 2.3 2.2 0 0 0-2-2.5 6.7 6.7 0 0 0-3.6 0c-.6.3-.1 1.6-.2 2.4z" class="cls-5"/><path id="path26" fill="#020202" d="M200.1 222.1v-10.5c0-2.5 1.1-3.7 3.6-3.7 3.2 0 6.4-.3 9.6.2a12.7 12.7 0 0 1 10.6 11.4c.5 4.4 0 8.6-3 12.1a12 12 0 0 1-9.3 4.6h-8.3a3 3 0 0 1-3.2-3.2V222zm6.4-.1v7.4c0 .3-.2.8.6.8h4.1a6.2 6.2 0 0 0 5.4-4.5 11.8 11.8 0 0 0 .1-7 6.2 6.2 0 0 0-6-4.8h-3.4c-.7 0-.8.3-.8.9v7.2z" class="cls-6"/><path id="path28" fill="#030303" d="M123.4 224.7l5.5 6a3.5 3.5 0 0 1 1.2 3.3 3 3 0 0 1-2.3 2.3 3.5 3.5 0 0 1-3.8-1.2l-6.8-8.7-1.2-1.4v8c0 2.4-1.3 3.6-3.7 3.4a2.8 2.8 0 0 1-2.7-2.5 13 13 0 0 1 0-1.8v-19.9a13.5 13.5 0 0 1 0-1.5 2.7 2.7 0 0 1 2.6-2.7 51.1 51.1 0 0 1 10.4.1 8 8 0 0 1 7.2 7.6c.3 4.8-1.7 7.6-6.4 9zM116 217v2.3c0 .6.1.9.8.9h3.7a3 3 0 0 0 3-3 3 3 0 0 0-2.8-3.2 11.6 11.6 0 0 0-1.6 0c-1 0-2.3-.4-2.8.2-.5.6-.2 1.9-.3 2.8z" class="cls-5"/><path id="path30" fill="#020202" d="M364.2 236.4a2.6 2.6 0 0 1-2.8-1.7l-1-3.1c-.2-.6-.4-.9-1-.9h-9a.8.8 0 0 0-1 .7 23.6 23.6 0 0 1-1.1 3.1 3.1 3.1 0 0 1-4.2 1.7c-1.4-.5-2-1.8-1.7-3.6a64.2 64.2 0 0 1 2.8-7.6l4.8-13.1a12.4 12.4 0 0 1 1.3-2.6 4.3 4.3 0 0 1 7.3 0 15.1 15.1 0 0 1 1.6 3.5l6.5 17.5a16 16 0 0 1 .7 2.6c.3 2.2-.8 3.5-3.2 3.5zm-9.2-22l-3.2 9.8c-.2.6.2.6.6.6h4.9c.7 0 .9-.1.6-.9l-2.9-9.4z" class="cls-6"/><path id="path32" fill="#020202" d="M297 236.4a2.7 2.7 0 0 1-2.8-1.7 15.9 15.9 0 0 1-.7-2c-.7-2-.7-2-2.8-2h-6.8c-1 0-1.7.2-1.9 1.4a10.2 10.2 0 0 1-.9 2.6 3.1 3.1 0 0 1-4 1.6c-1.4-.4-2-1.5-1.9-3.3a14 14 0 0 1 1-3.5l6.4-17.1a22.9 22.9 0 0 1 1-2.5 4.3 4.3 0 0 1 4-2.6 4.3 4.3 0 0 1 4 2.5 38.6 38.6 0 0 1 2.1 5.2l5.9 16a9.3 9.3 0 0 1 .5 2.1c.2 2.2-.9 3.3-3.1 3.3zm-6-11.6l-3.2-10.3-3.3 9.8c-.2.6.3.5.7.5z" class="cls-6"/><path id="path34" fill="#030303" d="M265.3 207.3a12 12 0 0 1 5.7 1.3 3.3 3.3 0 0 1 1.8 3.3 2.8 2.8 0 0 1-3.3 2.7c-1.4-.2-2.7-1-4.1-1a4.5 4.5 0 0 0-2.5.3 2 2 0 0 0-1.2 1.9 1.6 1.6 0 0 0 1.1 1.6l4.2 1.5 2 .7c4 1.6 5.5 4 5.5 8.3a8.3 8.3 0 0 1-5.7 8 15.4 15.4 0 0 1-12.3-.7 3.3 3.3 0 0 1-2.2-3.5 3 3 0 0 1 4-2.8 24.6 24.6 0 0 0 5 1.4 7.6 7.6 0 0 0 2.3-.1 2.4 2.4 0 0 0 2-2 2.3 2.2 0 0 0-1.3-2.5 20.6 20.6 0 0 0-3.6-1.3l-2.3-.8c-4-1.4-5.6-3.5-5.6-7.2a8.4 8.4 0 0 1 5.8-8.4 14 14 0 0 1 4.7-.7z" class="cls-5"/><path id="path36" fill="#d81d12" d="M333.1 167.9l-.2-.3 12.7-5.4c.9-.4.8-.7.3-1.3l-4.5-5.8 3.3-.1 8.3 3.2a2.3 2.3 0 0 0 2 0 480 480 0 0 1 8-3.5 1.5 1.5 0 0 1 1.2-.2l-1 6.4c-.3 1.1 0 1.6 1.1 2 4.5 1.7 9 3.5 13.4 5.4h-5l-9.6-.1c-.6 0-1 0-1.2.7l-1.3 10.3a2.4 2.4 0 0 0 0 .5h-.5c0-.5-.3-.8-.6-1-2.2-3-4.5-5.7-6.5-8.6a4.4 4.4 0 0 0-4.2-2c-5.2-.2-10.5-.2-15.7-.2z"/><path id="path38" fill="#030303" d="M91.3 222v-10.5c0-2.4 1.1-3.6 3.5-3.6h9.2c2.1 0 3.3 1 3.4 2.5a2.8 2.8 0 0 1-3 3.5h-5.8c-.7 0-.9.2-.9.8v3.5c0 .6.2.8.9.8h5.6a2.7 2.7 0 0 1 2.7 3.2 2.8 2.8 0 0 1-2.9 2.8h-5.4c-.7 0-1 .2-.9.9a35 35 0 0 0 .2 4.2l4 .1h3.2a3 3 0 0 1-.3 6h-10c-2.4 0-3.5-1.2-3.6-3.5V222z" class="cls-5"/><path id="path40" fill="#020202" d="M226.4 222v-10.5c0-2.4 1.1-3.6 3.5-3.6h9.4c2 0 3.2 1 3.3 2.6a2.8 2.8 0 0 1-3 3.4h-5.8c-.8 0-1 .2-1 1a32.1 32.1 0 0 1 0 3.3c0 .7.2.8.8.8h5c2 0 3 .8 3.3 2.2a3 3 0 0 1-3 3.8h-5.2c-.7 0-1 .1-1 1a29 29 0 0 1 0 3.4c0 .7.2.9 1 .9h6c2 0 3 1.1 3 3a2.6 2.6 0 0 1-2.6 2.9h-11c-1.7 0-2.8-1.4-2.8-3.3l.1-10.9z" class="cls-6"/><path id="path42" fill="#020202" d="M397.3 222v-10.6c0-2.3 1.1-3.4 3.4-3.5h9.5c2 0 3 .9 3.3 2.4a3 3 0 0 1-3 3.6h-5.8c-.8 0-1 .2-1 1a27.5 27.5 0 0 1 0 3.2c0 .7.2 1 1 1h5.2c2 0 3 1 3 2.7a2.9 2.9 0 0 1-3 3.3h-5.4c-.6 0-.8 0-.8.8v3.7c0 .6.2.7.8.7h6.1c2 0 3.3 1.3 3.1 3.2a2.7 2.7 0 0 1-2.6 2.7h-11a2.9 2.9 0 0 1-2.8-3.1v-11z" class="cls-6"/><path id="path44" fill="#050505" d="M379.8 222v-10.6c0-2.2 1.1-3.4 3.4-3.5h9.6c1.8 0 2.8.8 3.1 2.1a3 3 0 0 1-3 3.9h-5.7c-.7 0-1 .2-1 .9v3.3c0 .6.2.8.9.8h4.8c2 0 3.2 1 3.3 2.7a2.8 2.8 0 0 1-3 3.3h-4.7c-1 0-1.3.1-1.3 1.2v6.7c0 2.2-1 3.5-3 3.6-2.2.1-3.4-1-3.5-3.3v-1.6l.1-9.5z"/><path id="path46" fill="#020202" d="M333.8 224v-8.8c0-1.2-.3-1.4-1.4-1.3a16.1 16.1 0 0 1-2.7 0 2.7 2.7 0 0 1-2.8-3c0-1.8.8-3 2.8-3H344c2.1 0 3 1.3 3 3.2 0 1.7-1.2 2.8-3.2 2.8a22.3 22.3 0 0 1-2.7 0c-.9 0-1 .3-1 1v18c0 2.4-1.2 3.6-3.3 3.6a2.9 2.9 0 0 1-3.1-3.2V224z" class="cls-6"/><path id="path48" fill="#020202" d="M81.9 222v-11a3 3 0 0 1 4-3.3 2.9 2.9 0 0 1 2.4 3v21.4a9 9 0 0 1-.1 1.9c-.4 1.8-1.7 2.6-3.7 2.4a2.8 2.8 0 0 1-2.6-3v-11.5z" class="cls-6"/><path id="path50" fill="#f4f4f4" d="M298.8 153v-.1l.2-.1c0 .2 0 .2-.2.3z"/><path id="path52" fill="#030303" d="M13.6 256.5c.7-1.3 1.5-1.8 2.2-1.8A2 2 0 0 1 18 257v13.3a2 2 0 0 1-4 0v-7.7l-3.3 6.3c-.5.9-1 1.3-1.8 1.3-.9 0-1.3-.4-1.8-1.4L4 262.6v7.6a2 2 0 0 1-3.9 0V257a2 2 0 0 1 2.2-2.2c1 0 1.6.5 2.3 1.8l4.5 8.3z" class="cls-5"/><path id="path54" fill="#030303" d="M21.5 256.7a2 2 0 1 1 4 0v13.5a2 2 0 0 1-4 0z" class="cls-5"/><path id="path56" fill="#030303" d="M39.1 256.6a2 2 0 0 1 4 0v13.6a1.8 1.8 0 0 1-2 2 2 2 0 0 1-1.7-1l-6.5-8.4v7.4a2 2 0 0 1-3.9 0V257a2 2 0 0 1 3.6-1.3l6.5 9.1z" class="cls-5"/><path id="path58" fill="#030303" d="M46.6 256.7a2 2 0 1 1 4 0v13.5a2 2 0 1 1-4 0z" class="cls-5"/><path id="path60" fill="#030303" d="M62.8 267.1c0-.9-1-1.4-4.2-2.3-3-.8-5-2-5-5.2s3-5.1 6.6-5.1a8.4 8.4 0 0 1 4.7 1.1 2.5 2.5 0 0 1 1.3 2.1 1.9 1.8 0 0 1-1.9 2 3 3 0 0 1-1.6-.6 5 5 0 0 0-2.8-.8c-1.7 0-2.3.7-2.3 1.3 0 .8.9 1.4 3.9 2.1 2.7.7 5.3 1.8 5.3 5.3 0 3-2.3 5.4-7 5.4a8.4 8.4 0 0 1-5.5-1.6 2.8 2.8 0 0 1-1-2 2 2 0 0 1 1.7-2 2.6 2.6 0 0 1 1.5.6 6 6 0 0 0 3.7 1.2c1.3 0 2.6-.3 2.6-1.5z" class="cls-5"/><path id="path62" fill="#030303" d="M81 254.7a1.8 1.7 0 1 1 0 3.5h-3.7v12a2 2 0 1 1-4 0v-12h-3.5a1.8 1.7 0 1 1 0-3.5z" class="cls-5"/><path id="path64" fill="#030303" d="M96.1 268.7a1.8 1.7 0 1 1 0 3.5h-9a1.8 1.8 0 0 1-2-2v-13.5a1.8 1.8 0 0 1 2-2h9a1.8 1.7 0 1 1 0 3.5h-7v3.4h4.2a1.8 1.7 0 1 1 0 3.5h-4.2v3.5z" class="cls-5"/><path id="path66" fill="#030303" d="M110.4 265.7l2.2 2.6a3 3 0 0 1 .9 2 1.9 1.9 0 0 1-2 1.9 2.5 2.5 0 0 1-2-1.2l-3.5-4.5h-1.6v3.7a2 2 0 1 1-4 0v-13.5a1.9 1.9 0 0 1 2-2h4.6c3.9 0 6.4 2.4 6.4 5.8a5.4 5.4 0 0 1-3 5.2zM107 263a2.4 2.4 0 0 0 0-4.8h-2.6v4.8z" class="cls-5"/><path id="path68" fill="#030303" d="M116.2 256.7a2 2 0 1 1 4 0v13.5a2 2 0 1 1-4 0z" class="cls-5"/><path id="path70" fill="#030303" d="M139.8 263.4c0 5.5-3.4 9-8.3 9-5 0-8.4-3.5-8.4-9 0-5.4 3.4-9 8.4-9s8.3 3.6 8.3 9zm-12.7 0c0 3.2 1.8 5.2 4.4 5.2 2.5 0 4.3-2 4.3-5.2 0-3.1-1.8-5.1-4.3-5.1-2.6 0-4.4 2-4.4 5.1z" class="cls-5"/><path id="path72" fill="#030303" d="M154.8 254.7c4.7 0 8 3.4 8 8.7 0 5.3-3.4 8.8-8 8.8h-4.9a1.8 1.8 0 0 1-2-2v-13.5a1.8 1.8 0 0 1 2-2zm-.3 14c2.8 0 4.2-2 4.2-5.3s-1.5-5.2-4.3-5.2h-2.5v10.5z" class="cls-5"/><path id="path74" fill="#030303" d="M176.6 268.7a1.8 1.7 0 1 1 0 3.5h-9a1.8 1.8 0 0 1-2-2v-13.5a1.8 1.8 0 0 1 2-2h9a1.8 1.7 0 1 1 0 3.5h-7v3.4h4.2a1.8 1.7 0 1 1 0 3.5h-4.2v3.5z" class="cls-5"/><path id="path76" fill="#030303" d="M194.9 267.1c0-.9-1-1.4-4.2-2.3-3-.8-5-2-5-5.2s3-5.1 6.6-5.1a8.4 8.4 0 0 1 4.7 1.1 2.5 2.5 0 0 1 1.3 2.1 1.9 1.8 0 0 1-1.9 2 3 3 0 0 1-1.6-.6 5 5 0 0 0-2.9-.8c-1.6 0-2.2.7-2.2 1.3 0 .8.8 1.4 3.8 2.1 2.7.7 5.4 1.8 5.4 5.3 0 3-2.3 5.4-7 5.4a8.4 8.4 0 0 1-5.5-1.6 2.8 2.8 0 0 1-1.1-2 2 2 0 0 1 1.8-2 2.6 2.6 0 0 1 1.5.6 6 6 0 0 0 3.7 1.1c1.3 0 2.6-.2 2.6-1.4z" class="cls-5"/><path id="path78" fill="#030303" d="M212.6 268.7a1.8 1.7 0 1 1 0 3.5h-9a1.8 1.8 0 0 1-2-2v-13.5a1.8 1.8 0 0 1 2-2h9a1.8 1.7 0 1 1 0 3.5h-7v3.4h4.2a1.8 1.7 0 1 1 0 3.5h-4.2v3.5z" class="cls-5"/><path id="path80" fill="#030303" d="M229.4 262.5c1.8 0 2.4 1 2.4 2.4 0 4.2-3 7.5-7.9 7.5-4.8 0-8.3-3.5-8.3-8.9s3.7-9 8.4-9a8 8 0 0 1 5.8 2.1 2.8 2.8 0 0 1 1.2 2.2 1.8 1.8 0 0 1-1.8 1.9 2.3 2.3 0 0 1-1.7-.8 4.3 4.3 0 0 0-3.4-1.6c-2.8 0-4.4 2-4.4 5.3 0 3 1.9 5 4.5 5 2 0 3.3-1 3.5-2.6h-2.5a1.8 1.8 0 0 1-2-1.7 1.8 1.8 0 0 1 2-1.8z" class="cls-5"/><path id="path82" fill="#030303" d="M245.5 256.7a2 2 0 1 1 4 0v8.4c0 4.4-2.8 7.3-7.5 7.3s-7.4-2.9-7.4-7.2v-8.5a2 2 0 1 1 3.9 0v7.9c0 2.8 1 4 3.5 4s3.5-1.2 3.5-4.1z" class="cls-5"/><path id="path84" fill="#030303" d="M262.7 265.7l2.2 2.6a3 3 0 0 1 1 2 1.9 1.9 0 0 1-2 1.9 2.5 2.5 0 0 1-2-1.2l-3.5-4.5h-1.6v3.7a2 2 0 0 1-4 0v-13.5a1.9 1.9 0 0 1 2-2h4.6c3.8 0 6.4 2.4 6.4 5.8a5.4 5.4 0 0 1-3 5.2zm-3.3-2.7a2.4 2.4 0 0 0 0-4.8h-2.6v4.8z" class="cls-5"/><path id="path86" fill="#030303" d="M268.6 256.7a2 2 0 1 1 4 0v13.5a2 2 0 0 1-4 0z" class="cls-5"/><path id="path88" fill="#030303" d="M283 254.7c4.7 0 8 3.4 8 8.7 0 5.3-3.4 8.8-8 8.8h-5a1.8 1.8 0 0 1-2-2v-13.5a1.8 1.8 0 0 1 2-2zm-.3 14c2.8 0 4.2-2 4.2-5.3s-1.5-5.2-4.3-5.2H280v10.5z" class="cls-5"/><path id="path90" fill="#030303" d="M303.6 268.6H297l-1 2.3a1.7 1.7 0 0 1-1.7 1.3 1.8 1.8 0 0 1-2-1.8 2.3 2.3 0 0 1 .2-1l5.6-13a2.3 2.3 0 0 1 2.2-1.7 2.3 2.3 0 0 1 2.3 1.7l5.6 13a2 2 0 0 1 .2.8 2 2 0 0 1-2 2 1.8 1.8 0 0 1-1.9-1.2zm-5.4-3.2h4.1l-2-5.3z" class="cls-5"/><path id="path92" fill="#030303" d="M317.8 254.7c4.7 0 8 3.4 8 8.7 0 5.3-3.4 8.8-8 8.8h-4.9a1.8 1.8 0 0 1-2-2v-13.5a1.8 1.8 0 0 1 2-2zm-.3 14c2.8 0 4.2-2 4.2-5.3s-1.5-5.2-4.3-5.2h-2.5v10.5z" class="cls-5"/></svg>
