<svg xmlns="http://www.w3.org/2000/svg" width="422.8" height="422.8"><defs id="defs4"><style id="style2">.cls-10{fill:#a6a6a6}</style></defs><path id="path6" fill="#a6a6a6" d="M318 145.5a12.5 12.5 0 0 0 3.3 1.4l8 3.3a3.2 3.2 0 0 0 2.3.2l9.9-2.8a2 2 0 0 1 1.2 0l-4 6.4 6.3 2.6 7.3 3H349a6 6 0 0 0-.9-.1l-12-.6c-.5 0-.7.3-1 .7l-5 8.5h-.3l-5-9a1.3 1.3 0 0 0-1.2-.8l-3.6-.1c-4.8-.1-9.7-.5-14.5-.4v-.2c.2 0 .3-.1.3-.3a56.7 56.7 0 0 0 6.5-1.7l8.3-2.3c.9-.2.9-.5.5-1.2-1.2-2.3-2.6-4.3-3.5-6.6z" class="cls-10"/><path id="path8" fill="#a6a6a6" d="M368.6 184.6l11.3-7.3v11a1.7 1.7 0 0 0 1.2 2l17.1 7.2 1 .5a47 47 0 0 1-6 .5l-12.4.7c-.8 0-1 .3-1 1.1l.1 17.9v.8c-.5-.1-.6-.5-.8-.8L367.3 201a1.8 1.8 0 0 0-1.9-1l-21 1.6H343l5.9-4 10-6.8c.5-.3 1-.4.5-1.2l-6.7-9.5a1.6 1.6 0 0 0-.4-.3c-.2-1-1.1-1.7-1.4-2.7l17.1 7.3z" class="cls-10"/><path id="path10" fill="#a6a6a6" d="M350.9 177.3c.3 1 1.2 1.6 1.4 2.6-3 .4-6 .2-9 .3h-6a1 1 0 0 0-1.1.7l-6 13.7-.6 1-3.8-8.3-2.6-5.8a1.5 1.5 0 0 0-1.7-1.1l-21 .4h-2a11 11 0 0 1 3.4-1.5l15.8-6.2c1.4-.6 1.4-.6.8-2l-3.2-7c0-.8-1.1-1.3-.6-2.3l8.3 3.5a62.3 62.3 0 0 0 6.8 2.8h.3l10.2-3.8a27 27 0 0 1 4.4-1.5l-2.6 5.5c-.6 1.3-1.6 2.5-1.8 4l.3.3a1.3 1.3 0 0 0 .7.5l9.6 4.2z" class="cls-10"/><path id="path12" fill="#a6a6a6" d="M314.7 161.8c-.5 1 .6 1.5.6 2.3-5 0-9.9-.2-14.8-.5a2.9 2.9 0 0 0-2.4 1L288 175c-.2.3-.5.8-1 .6-.4-.1-.2-.7-.3-1.1l-2-10.3c-.2-1-.8-.7-1.4-.7l-22-.4H260a15.5 15.5 0 0 1 4-1.3l11.8-3 6.7-1.6c.8-.1 1-.4.9-1.1-.3-2.4-1-4.8-1.2-7.2-.1-1 .2-.9.8-.6l11.9 5.2a4 4 0 0 0 2.7 0l13.3-3.2 2-.4-4 4.2a23.3 23.3 0 0 0-3.1 3.3l-.3.1v.5z" class="cls-10"/><path id="path14" fill="#a6a6a6" d="M154.3 230.3v-12.5a11.9 11.9 0 0 1 0-1.7 3 3 0 0 1 3.4-2.9 3 3 0 0 1 3.2 3.2v22.9a3 3 0 0 1-2 3 3.5 3.5 0 0 1-4-1l-6.7-8.4-5.8-7.2c-.4.3-.2.7-.2 1V239c0 2.3-1 3.5-3.1 3.5-2 0-3.4-1-3.4-3.4v-22.3a3.1 3.1 0 0 1 2-3.3 3.5 3.5 0 0 1 4.1 1.2l12 14.9z" class="cls-10"/><path id="path16" fill="#a6a6a6" d="M327 230.4v-13.7c0-2.4 1.6-3.8 4-3.4a2.9 2.9 0 0 1 2.6 3.2v22.4c0 1.5-.4 2.8-2 3.4a3.4 3.4 0 0 1-4-1l-7.8-9.8-4.8-6V238a11 11 0 0 1-.1 2c-.3 1.8-1.7 2.7-3.7 2.5a2.9 2.9 0 0 1-2.7-3v-13.6-9.1a3.1 3.1 0 0 1 1.8-3.3 3.4 3.4 0 0 1 4 1l4.4 5.3 8.4 10.6z" class="cls-10"/><path id="path18" fill="#a6a6a6" d="M163.3 225.9a13.3 13.3 0 0 1 5.3-10.3c4.6-3.4 9.8-3.6 15-1.5 4.9 2.1 7 6.3 7.7 11.4a19.4 19.4 0 0 1-.5 7.4c-1.9 7.2-8 10.6-15 10-8-.7-12.6-7-12.5-17zm7 1.9a12.5 12.5 0 0 0 1 5.3 6.2 6.2 0 0 0 6 3.7 6 6 0 0 0 6-3.7 12.2 12.2 0 0 0 0-10.4 6 6 0 0 0-5.8-3.8 6.2 6.2 0 0 0-6 3.6 12.4 12.4 0 0 0-1.2 5.3z" class="cls-10"/><path id="path20" fill="#a6a6a6" d="M58.2 229.1c-.1 4.1-1.6 8.7-6.2 11.7a14 14 0 0 1-21.8-10.3 18.5 18.5 0 0 1 1.4-10.2A13.5 13.5 0 0 1 46 213c7.8 1 12.2 6.5 12.2 16.1zm-21.1-1a12.4 12.4 0 0 0 1 4.8 6.3 6.3 0 0 0 6.2 4 6.1 6.1 0 0 0 5.9-4 12.3 12.3 0 0 0 0-9.6 6.3 6.3 0 0 0-6.1-4.3 6.4 6.4 0 0 0-6.1 4 13.6 13.6 0 0 0-1 5z" class="cls-10"/><path id="path22" fill="#a6a6a6" d="M21.2 225.2h3.6c2.1.1 3.3 1.2 3.4 3.3.4 9-6 15.3-15 14.3-7.3-.8-12-6.5-12.2-14.2-.1-4.3 1-8.2 4-11.4 4.2-4.4 9.3-5.1 15-3.7a11 11 0 0 1 4.3 2 5 5 0 0 1 1.7 2.2 3.1 3.1 0 0 1-.6 3.5 3.3 3.3 0 0 1-3.7.3l-1.6-1c-5.1-3.5-10.8-1-11.9 5.2a11.3 11.3 0 0 0 1.3 7.8 6.3 6.3 0 0 0 6.5 3.3 5.5 5.5 0 0 0 5-4c.5-1.4.4-1.5-1-1.5h-2.6a2.9 2.9 0 0 1-3.1-2.9 2.8 2.8 0 0 1 2.7-3 38.3 38.3 0 0 1 4 0z" class="cls-10"/><path id="path24" fill="#a6a6a6" d="M76.5 226.5c4 1.4 5.7 4 5.5 7.9a8.2 8.2 0 0 1-6.8 7.6c-2.5.5-5 .2-7.4.3h-4.1a3 3 0 0 1-3.1-3.1v-22.5a3 3 0 0 1 2.9-3.1 55.4 55.4 0 0 1 9.7 0 6.7 6.7 0 0 1 6 5c.9 3 .3 5.6-2.3 7.5l-.4.4zm-9.4 7v2.2c0 .4 0 .7.5.7 1.8 0 3.6.2 5.4-.2a2.6 2.6 0 0 0 2.2-2.6 2.7 2.7 0 0 0-2.1-2.8 9.1 9.1 0 0 0-3-.3c-3 0-3 0-3 3zm0-11.6c0 2.7 0 2.7 2.6 2.7a8.4 8.4 0 0 0 1 0A2.4 2.4 0 0 0 73 222a2.3 2.3 0 0 0-2-2.5 6.9 6.9 0 0 0-3.7 0c-.6.3-.1 1.7-.2 2.4z" class="cls-10"/><path id="path26" fill="#a6a6a6" d="M205 228v-10.7c0-2.6 1.1-3.8 3.7-3.8 3.2 0 6.5-.3 9.7.2a13 13 0 0 1 10.9 11.6 16 16 0 0 1-3 12.3 12.2 12.2 0 0 1-9.6 4.7h-8.4a3 3 0 0 1-3.3-3.3v-11zm6.5-.2v7.6c0 .3-.2.8.5.8h4.3a6.3 6.3 0 0 0 5.4-4.6 12 12 0 0 0 .2-7.1 6.3 6.3 0 0 0-6.2-4.9h-3.4c-.7 0-.8.2-.8.9v7.3z" class="cls-10"/><path id="path28" fill="#a6a6a6" d="M126.8 230.6l5.6 6.1a3.5 3.6 0 0 1 1.2 3.4 3 3 0 0 1-2.3 2.4 3.6 3.6 0 0 1-4-1.3c-2.2-3-4.6-6-7-8.8-.2-.5-.6-.8-1.1-1.5v8.2c0 2.4-1.4 3.6-3.7 3.4a2.9 2.9 0 0 1-2.8-2.5 13.2 13.2 0 0 1-.1-1.9v-20.2a13.8 13.8 0 0 1 0-1.5 2.8 2.8 0 0 1 2.8-2.8 52.1 52.1 0 0 1 10.6.1 8.2 8.2 0 0 1 7.2 7.7c.4 4.9-1.6 7.7-6.4 9.2zm-7.6-8v2.5c0 .6.1.9.8.8h3.7a3 3 0 0 0 3-3 3 3 0 0 0-2.8-3.2 11.8 11.8 0 0 0-1.7 0c-1 0-2.3-.5-2.8.2-.5.6-.2 1.8-.2 2.8z" class="cls-10"/><path id="path30" fill="#a6a6a6" d="M372.3 242.5a2.7 2.7 0 0 1-2.8-1.7c-.5-1-.8-2.1-1.2-3.2-.1-.5-.3-.9-1-.9h-9.1a.8.8 0 0 0-1 .8 24 24 0 0 1-1.1 3.1 3.2 3.2 0 0 1-4.3 1.8c-1.5-.5-2.1-1.9-1.7-3.7a65.4 65.4 0 0 1 2.7-7.8l5-13.4a12.7 12.7 0 0 1 1.2-2.6 4.4 4.4 0 0 1 7.4 0 15.4 15.4 0 0 1 1.7 3.5l6.5 17.9a16.3 16.3 0 0 1 .8 2.6c.4 2.3-.8 3.6-3.1 3.6zm-9.4-22.3l-3.3 9.9c-.2.7.2.6.6.6h5c.8 0 1-.1.7-.9l-3-9.6z" class="cls-10"/><path id="path32" fill="#a6a6a6" d="M303.7 242.5a2.7 2.7 0 0 1-2.8-1.7 16.2 16.2 0 0 1-.8-2c-.6-2-.6-2-2.8-2h-6.9c-1.1 0-1.7.2-2 1.4a10.4 10.4 0 0 1-.9 2.6 3.2 3.2 0 0 1-4 1.7c-1.5-.5-2.2-1.5-2-3.4a14.3 14.3 0 0 1 1-3.6l6.5-17.4a23.3 23.3 0 0 1 1-2.6 4.3 4.4 0 0 1 4.2-2.7 4.4 4.4 0 0 1 4.1 2.6 39.4 39.4 0 0 1 2.1 5.3l6 16.3a9.5 9.5 0 0 1 .5 2.2c.2 2.2-.9 3.3-3.2 3.3zm-6.1-11.8l-3.3-10.5-3.2 10c-.3.6.3.5.6.5z" class="cls-10"/><path id="path34" fill="#a6a6a6" d="M271.4 212.8a12.3 12.3 0 0 1 5.9 1.4 3.3 3.3 0 0 1 1.8 3.4 2.9 2.9 0 0 1-3.4 2.7c-1.4-.2-2.7-1-4.2-1a4.6 4.6 0 0 0-2.6.4 2 2 0 0 0-1.2 1.9 1.6 1.6 0 0 0 1.2 1.6l4.2 1.5 2.1.7c4.1 1.7 5.6 4 5.6 8.5a8.5 8.5 0 0 1-5.9 8.3 15.7 15.7 0 0 1-12.4-.9 3.4 3.4 0 0 1-2.3-3.5 3 3 0 0 1 4-2.9 25.1 25.1 0 0 0 5 1.4 7.7 7.7 0 0 0 2.4 0 2.5 2.5 0 0 0 2-2.1 2.3 2.3 0 0 0-1.3-2.5 21 21 0 0 0-3.6-1.4l-2.4-.8c-4-1.4-5.7-3.6-5.8-7.3a8.5 8.5 0 0 1 6-8.5 14.2 14.2 0 0 1 4.9-.9z" class="cls-10"/><path id="path36" fill="#a6a6a6" d="M340.6 172.7l-.3-.3 13-5.6c.9-.3.8-.6.3-1.3l-4.6-6h3.3c2.9 1 5.7 2.2 8.5 3.3a2.3 2.3 0 0 0 2 0l8.2-3.7a1.5 1.5 0 0 1 1.2-.2l-1 6.5c-.3 1.2 0 1.7 1 2 4.7 1.8 9.2 3.7 13.8 5.7h-5.3l-9.7-.2c-.6 0-1.1 0-1.2.8l-1.3 10.4a2.4 2.4 0 0 0 0 .5h-.5c0-.5-.4-.7-.6-1-2.3-2.9-4.6-5.7-6.7-8.7a4.5 4.5 0 0 0-4.2-2.1l-16-.1z" class="cls-10"/><path id="path38" fill="#a6a6a6" d="M94 228V217c0-2.4 1.2-3.6 3.6-3.6h9.4c2.2 0 3.4 1 3.5 2.6.2 2.1-.9 3.4-3 3.5h-6c-.7 0-1 .2-.9.8v3.5c0 .7.2.9.9.9h5.7a2.7 2.7 0 0 1 2.8 3.2 2.8 2.8 0 0 1-3 2.9h-5.5c-.7 0-1 .2-1 .9a35.7 35.7 0 0 0 .2 4.3l4.2.1h3.2a3 3 0 0 1-.3 6H97.6c-2.4 0-3.6-1.1-3.6-3.5V228z" class="cls-10"/><path id="path40" fill="#a6a6a6" d="M231.8 227.9v-10.7c0-2.5 1.1-3.7 3.5-3.7h9.6c2 0 3.3 1 3.4 2.6a2.9 2.9 0 0 1-3.2 3.5h-5.8c-.8 0-1 .2-1 1a32.7 32.7 0 0 1 0 3.4c0 .6.2.8.8.8h5.2c2 0 3 .8 3.3 2.2a3 3 0 0 1-3 4h-5.3c-.8 0-1.1 0-1 .9a29.6 29.6 0 0 1 0 3.5c0 .7.2.9.9.9h6c2.1 0 3.3 1.1 3.3 3.1a2.7 2.7 0 0 1-2.7 2.9h-11.3c-1.7 0-2.8-1.4-2.8-3.4v-11z" class="cls-10"/><path id="path42" fill="#a6a6a6" d="M406 227.9V217c0-2.4 1.1-3.6 3.4-3.6h9.7c2 0 3 .8 3.4 2.4a3 3 0 0 1-3.1 3.7h-6c-.7 0-1 .2-.9 1a28 28 0 0 1 0 3.2c0 .8.2 1 1 1h5.4c2 .1 3 1.1 3 2.8a3 3 0 0 1-3.1 3.3h-5.4c-.6 0-.9.1-.9.8v3.8c0 .6.2.8.8.8h6.3c2 0 3.3 1.3 3.2 3.3a2.7 2.7 0 0 1-2.7 2.7h-11.3a3 3 0 0 1-2.8-3.2v-11.2z" class="cls-10"/><path id="path44" fill="#a6a6a6" d="M388.2 227.9V217c0-2.3 1-3.6 3.4-3.6h9.9c1.8 0 2.8.8 3 2.1a3 3 0 0 1-3 4h-5.8c-.7 0-1 .2-.9 1v3.3c0 .7.2.9.9.9h4.8c2.1 0 3.3 1 3.4 2.7a2.8 2.8 0 0 1-3 3.4H396c-1 0-1.3.1-1.3 1.2v6.8c0 2.3-1.1 3.6-3 3.7-2.3.1-3.5-1-3.6-3.4v-1.6-9.7z" class="cls-10"/><path id="path46" fill="#a6a6a6" d="M341.2 230v-9c0-1.2-.3-1.5-1.4-1.4a16.4 16.4 0 0 1-2.7 0 2.8 2.8 0 0 1-3-3c0-1.8.9-3 2.9-3h14.7c2.2 0 3 1.2 3 3.2 0 1.7-1.2 2.8-3.3 2.8a22.7 22.7 0 0 1-2.7 0c-.9 0-1 .3-1 1V239c0 2.4-1.2 3.6-3.3 3.6a3 3 0 0 1-3.2-3.2v-9.5z" class="cls-10"/><path id="path48" fill="#a6a6a6" d="M84.4 227.8v-11.2a3.1 3.1 0 0 1 4-3.3 3 3 0 0 1 2.5 3V238.2a9.1 9.1 0 0 1-.1 1.8c-.4 1.9-1.7 2.7-3.8 2.5a2.9 2.9 0 0 1-2.6-3v-11.7z" class="cls-10"/><path id="path50" fill="#a6a6a6" d="M305.6 157.6l-.1-.2.3-.1c0 .2-.1.2-.2.3z" class="cls-10"/><path id="path52" fill="#a6a6a6" d="M13.6 261.3c.7-1.3 1.4-1.8 2.2-1.8a2 2 0 0 1 2.1 2.2V275a2 2 0 0 1-3.9 0v-7.8l-3.3 6.3c-.5.9-1 1.3-1.8 1.3-.9 0-1.3-.4-1.8-1.3L4 267.3v7.7a2 2 0 0 1-3.9 0v-13.3a2 2 0 0 1 2.2-2.2c1 0 1.6.5 2.3 1.8l4.5 8.2z" class="cls-10"/><path id="path54" fill="#a6a6a6" d="M21.5 261.4a2 2 0 1 1 3.9 0V275a2 2 0 1 1-4 0z" class="cls-10"/><path id="path56" fill="#a6a6a6" d="M39 261.4a2 2 0 0 1 4 0V275a1.8 1.8 0 0 1-2 1.9 2 2 0 0 1-1.7-.9l-6.4-8.4v7.4a2 2 0 0 1-4 0v-13.4a2 2 0 0 1 3.7-1.2l6.4 9z" class="cls-10"/><path id="path58" fill="#a6a6a6" d="M46.5 261.4a2 2 0 1 1 4 0V275a2 2 0 1 1-4 0z" class="cls-10"/><path id="path60" fill="#a6a6a6" d="M62.7 271.9c0-1-1-1.5-4.2-2.3-3-.8-5-2.1-5-5.3 0-3.2 3-5 6.6-5a8.4 8.4 0 0 1 4.7 1 2.5 2.5 0 0 1 1.3 2.2 1.8 1.8 0 0 1-1.9 1.9 3 3 0 0 1-1.6-.5 5 5 0 0 0-2.9-.8c-1.6 0-2.2.6-2.2 1.2 0 .9.9 1.4 3.9 2.2 2.6.7 5.3 1.8 5.3 5.3 0 3-2.3 5.3-7 5.3a8.4 8.4 0 0 1-5.5-1.6 2.8 2.8 0 0 1-1.1-1.9 2 2 0 0 1 1.8-2 2.6 2.6 0 0 1 1.5.5 6 6 0 0 0 3.7 1.2c1.3 0 2.6-.2 2.6-1.4z" class="cls-10"/><path id="path62" fill="#a6a6a6" d="M80.8 259.5a1.8 1.8 0 1 1 0 3.5h-3.6v12a2 2 0 1 1-4 0v-12h-3.5a1.8 1.8 0 1 1 0-3.5z" class="cls-10"/><path id="path64" fill="#a6a6a6" d="M96 273.4a1.7 1.7 0 1 1 0 3.5h-9a1.8 1.8 0 0 1-2-2v-13.5a1.8 1.8 0 0 1 2-2h8.9a1.7 1.7 0 1 1 0 3.5h-7v3.4h4.3a1.8 1.8 0 1 1 0 3.5H89v3.6z" class="cls-10"/><path id="path66" fill="#a6a6a6" d="M110.2 270.4l2.2 2.6a3 3 0 0 1 .9 2.1 1.9 1.9 0 0 1-2 1.8 2.5 2.5 0 0 1-2-1.2l-3.4-4.5h-1.7v3.7a2 2 0 1 1-4 0v-13.5a1.9 1.9 0 0 1 2-2h4.6c3.9 0 6.4 2.4 6.4 5.9a5.4 5.4 0 0 1-3 5.1zm-3.3-2.7a2.4 2.4 0 0 0 0-4.7h-2.7v4.7z" class="cls-10"/><path id="path68" fill="#a6a6a6" d="M116 261.4a2 2 0 1 1 4 0V275a2 2 0 1 1-4 0z" class="cls-10"/><path id="path70" fill="#a6a6a6" d="M139.6 268.2c0 5.4-3.4 9-8.4 9-4.9 0-8.3-3.5-8.3-9s3.4-9 8.3-9c5 0 8.4 3.5 8.4 9zm-12.7 0c0 3.2 1.8 5.1 4.3 5.1 2.6 0 4.4-2 4.4-5.1 0-3.2-1.8-5.1-4.4-5.1-2.6 0-4.3 1.9-4.3 5z" class="cls-10"/><path id="path72" fill="#a6a6a6" d="M154.5 259.5c4.8 0 8 3.3 8 8.6s-3.4 8.8-8 8.8h-4.9a1.8 1.8 0 0 1-2-2v-13.5a1.8 1.8 0 0 1 2-2zm-.3 13.9c2.8 0 4.2-2 4.2-5.3s-1.5-5.1-4.3-5.1h-2.5v10.4z" class="cls-10"/><path id="path74" fill="#a6a6a6" d="M176.3 273.4a1.7 1.7 0 1 1 0 3.5h-9a1.8 1.8 0 0 1-2-2v-13.5a1.8 1.8 0 0 1 2-2h9a1.7 1.7 0 1 1 0 3.5h-7v3.4h4.2a1.8 1.8 0 1 1 0 3.5h-4.2v3.6z" class="cls-10"/><path id="path76" fill="#a6a6a6" d="M194.5 271.9c0-1-.9-1.5-4.1-2.3-3-.8-5-2.1-5-5.3 0-3.2 3-5 6.6-5a8.4 8.4 0 0 1 4.7 1 2.5 2.5 0 0 1 1.3 2.2 1.8 1.8 0 0 1-2 1.9 3 3 0 0 1-1.5-.5 5 5 0 0 0-2.9-.8c-1.6 0-2.2.7-2.2 1.2 0 .9.8 1.4 3.8 2.2 2.7.7 5.4 1.8 5.4 5.3 0 3-2.3 5.4-7 5.4a8.4 8.4 0 0 1-5.5-1.7 2.8 2.8 0 0 1-1.1-1.8 2 2 0 0 1 1.8-2 2.6 2.6 0 0 1 1.5.5 6 6 0 0 0 3.7 1c1.2.1 2.5-.1 2.5-1.3z" class="cls-10"/><path id="path78" fill="#a6a6a6" d="M212.3 273.4a1.7 1.7 0 1 1 0 3.5h-9a1.8 1.8 0 0 1-2-2v-13.5a1.8 1.8 0 0 1 2-2h9a1.7 1.7 0 1 1 0 3.5h-7v3.4h4.1a1.8 1.8 0 1 1 0 3.5h-4.2v3.6z" class="cls-10"/><path id="path80" fill="#a6a6a6" d="M229 267.2c1.9 0 2.4 1 2.4 2.4 0 4.2-3 7.5-7.9 7.5-4.7 0-8.3-3.5-8.3-8.8 0-5.4 3.7-9 8.4-9a8 8 0 0 1 5.8 2 2.8 2.8 0 0 1 1.2 2.2 1.8 1.8 0 0 1-1.8 2 2.3 2.3 0 0 1-1.7-.9 4.3 4.3 0 0 0-3.4-1.5c-2.8 0-4.4 2-4.4 5.2 0 3.1 1.9 5 4.5 5 2 0 3.3-.9 3.5-2.6h-2.5a1.8 1.8 0 0 1-2-1.7 1.8 1.8 0 0 1 2-1.8z" class="cls-10"/><path id="path82" fill="#a6a6a6" d="M245 261.4a2 2 0 1 1 4 0v8.4c0 4.4-2.7 7.3-7.4 7.3s-7.4-2.8-7.4-7.2v-8.5a2 2 0 1 1 3.9 0v8c0 2.7 1 4 3.5 4s3.5-1.3 3.5-4.2z" class="cls-10"/><path id="path84" fill="#a6a6a6" d="M262.3 270.4l2.2 2.6a3 3 0 0 1 .9 2.1 1.9 1.9 0 0 1-2 1.8 2.5 2.5 0 0 1-2-1.2l-3.5-4.5h-1.6v3.7a2 2 0 1 1-3.9 0v-13.5a1.9 1.9 0 0 1 2-2h4.6c3.8 0 6.4 2.4 6.4 5.9a5.4 5.4 0 0 1-3.1 5.1zm-3.4-2.7a2.4 2.4 0 0 0 0-4.7h-2.6v4.7z" class="cls-10"/><path id="path86" fill="#a6a6a6" d="M268.2 261.4a2 2 0 1 1 4 0V275a2 2 0 1 1-4 0z" class="cls-10"/><path id="path88" fill="#a6a6a6" d="M282.5 259.5c4.7 0 8 3.3 8 8.6s-3.4 8.8-8 8.8h-5a1.8 1.8 0 0 1-2-2v-13.5a1.8 1.8 0 0 1 2-2zm-.3 13.9c2.8 0 4.2-2 4.2-5.3s-1.5-5.1-4.3-5.1h-2.5v10.4z" class="cls-10"/><path id="path90" fill="#a6a6a6" d="M303.1 273.4h-6.6l-1 2.3a1.7 1.7 0 0 1-1.7 1.2 1.8 1.8 0 0 1-2-1.8 2.3 2.3 0 0 1 .2-1l5.6-13a2.3 2.3 0 0 1 2.3-1.6 2.3 2.3 0 0 1 2.2 1.6l5.6 13a2 2 0 0 1 .2.9 2 2 0 0 1-2.1 1.9 1.8 1.8 0 0 1-1.8-1.2zm-5.4-3.3h4.1l-2-5.2z" class="cls-10"/><path id="path92" fill="#a6a6a6" d="M317.3 259.5c4.7 0 7.9 3.3 7.9 8.6s-3.3 8.8-8 8.8h-4.8a1.8 1.8 0 0 1-2-2v-13.5a1.8 1.8 0 0 1 2-2zm-.3 13.9c2.7 0 4.2-2 4.2-5.3s-1.5-5.1-4.3-5.1h-2.6v10.4z" class="cls-10"/></svg>
