<svg xmlns="http://www.w3.org/2000/svg" width="208.4" height="208.4"><defs id="defs4"><style id="style2">.cls-2{fill:#1b8a82}</style></defs><path id="path6" fill="#1b8a82" d="M58.3 68.5A21.8 21.8 0 0 1 71.6 67c1 .1 2.7 0 2.7 1.5s-1.7 1-2.6 1.2a32.3 32.3 0 0 0-7 1.3c-2.4.9-2.8 1.6-2.2 4a41 41 0 0 0 2.8 6.9c.6 1.1 1 1 1.8.3A35.5 35.5 0 0 1 82.6 74a26.5 26.5 0 0 1 5.9-.8c.9 0 2-.3 2.4 1 .3 1.1-1 1.4-1.8 1.8L81 79.2a25.8 25.8 0 0 0-9 6.2 6.7 6.7 0 0 0-1.8 5c0 2.9-2 4.5-3.9 6.6-2.6-6.2-5.5-12-8.4-17.7-2.2-4.2-3.5-4.5-7-1.2a15.2 15.2 0 0 1-7 4c-3.6.8-5.7-.3-6.9-3.7-2.9-8.6-2.3-17.1 0-25.6a41 41 0 0 1 2.8-7.6 12.3 12.3 0 0 1 4.3-5.1 10.1 10.1 0 0 0 3.5-4.7 39.8 39.8 0 0 1 7.3-11.3c2.7-2.7 5.7-3.8 9.5-2.5a23.9 23.9 0 0 0 5.3 1 1.5 1.5 0 0 0 1.8-1C78 8.9 88.6 2.6 102.3.5A54.6 54.6 0 0 1 162 47.4a58 58 0 0 1-.1 16.1 31.4 31.4 0 0 1-11.2 18.7 94 94 0 0 1-14.8 10.4 10.7 10.7 0 0 1-4.6 1.6c-1.4 0-2-.7-1.3-1.8 2-3.4.7-6.2-1.3-8.9a29.2 29.2 0 0 0-5.2-5l-3-2.4c-.7-.5-1.5-1-1-2 .6-1 1.5-.7 2.3-.5a15.7 15.7 0 0 1 7.4 3.8 50.6 50.6 0 0 1 6.2 7.3c.6.9 1 1 2 .4a65 65 0 0 0 6.3-4.6 2.7 2.7 0 0 0 1-3 30 30 0 0 0-7.2-14.1 4.9 4.8 0 0 1-.6-.6c-.5-.7-1-1.4-.4-2.3.6-.8 1.5-.5 2.3-.2a14.8 14.8 0 0 1 6.2 4.5 71.7 71.7 0 0 1 5 7.4c.8 1.2 1.3 1 2 0a24.3 24.3 0 0 0 3.9-11.9 51 51 0 0 0-12-38.8A42 42 0 0 0 108.4 6c-15.6 1-27 8.5-33.8 22.7-.4.9-.8.9-1.6.6a45.1 45.1 0 0 0-10-2.3 6.2 6.2 0 0 0-5 1.8 18.7 18.7 0 0 0-5.1 8.4 15.7 15.7 0 0 1-5.5 8.1 13.7 13.7 0 0 0-4.5 6.5 39.4 39.4 0 0 0-2.5 19.1 10.8 10.8 0 0 0 1.5 4.4c1 1.6 2.2 2 3.9 1.2a15.2 15.2 0 0 0 5-4.2c.7-.8.3-1.9.1-2.8-1.4-5.3-.9-6.2 4.5-7.8a18.9 18.9 0 0 0 12.6-11.3 28.1 28.1 0 0 1 1.6-3.4c.7-1.2 1.9-1.6 3-.6C76.3 50 81 50.1 86 50a38.4 38.4 0 0 0 8-1.2 19.6 19.6 0 0 0 11.6-7.7 9.8 9.8 0 0 1 2.6-3c1.7-1 2.7-.6 3.1 1.3a3 3 0 0 1 .1.7c0 4.8 2.5 7.2 7 8.1a35.4 35.4 0 0 1 5.4 2 4.2 4.2 0 0 1 1.8 1.3 1.4 1.4 0 0 1 .2 1.5 1.1 1.1 0 0 1-1.3.5 22.6 22.6 0 0 1-2.4-.6 73.7 73.7 0 0 0-12.8-3 15.6 15.6 0 0 0-8 1c-4.5 1.9-9 3.4-14 3.6a28.2 28.2 0 0 1-6.7-.5 8.2 8.2 0 0 0-5.6 1 64.8 64.8 0 0 0-14 10.3l-3 2.9z" class="cls-2"/><path id="path8" fill="#1b8a82" d="M33.8 188a2.6 2.6 0 0 0-.3 2v14c0 3.1-.9 4-4 4.2-1.5.1-3 0-4.4.2-1 0-1.3-.4-1.3-1.4v-54.5c0-1 .2-1.5 1.3-1.4 2.4.2 5-.5 7 1.3.4.3.9-.1 1.3-.2a28.5 28.5 0 0 1 15-.5c6 1.4 9.8 5.3 11.3 11.2a33.9 33.9 0 0 1-.3 18.3c-2.2 7.8-8.4 11.6-16.9 11-3.4-.3-6.4-1.3-8.7-4.2zm16.5-16.7a16.7 16.6 0 0 0-1.5-7.7c-1.5-3-4-4-7.2-4-3.1 0-5.8 1.4-7 4.6a19.3 19.3 0 0 0 .3 14.6c1.3 3 3.8 4.4 7 4.3a7.1 7.1 0 0 0 7-4.3 17.5 17.5 0 0 0 1.4-7.5z" class="cls-2"/><path id="path10" fill="#1b8a82" d="M138.4 130.2c-2.5 10.5-10.3 14.2-19.8 13.2-9-1-13.7-5.7-15.4-14.6a35 35 0 0 1 .2-13.6c1.7-8.4 7.5-13 16.5-13.3a20.7 20.7 0 0 1 10.7 2c5.3 2.8 7.3 7.7 8.1 13.3a49 49 0 0 1 .4 6.4c0 1.4-.3 1.9-1.8 1.9h-22.4c-1.6 0-1.9.4-1.6 1.8.6 3 1.7 5.7 4.9 6.8a8.4 8.4 0 0 0 8.8-2 6.4 6.4 0 0 1 5-1.8h6.4zm-17.7-12h6.3c.5 0 1.1.2 1.2-.8a7.5 7.5 0 0 0-6-7c-4.5-.7-8.1 2.1-8.7 6.8-.2 1 .3 1 1 1z" class="cls-2"/><path id="path12" fill="#1b8a82" d="M183.8 175.9v14c0 1.3-.4 1.6-1.5 1.5-2.4-.2-4.9.5-7.1-1-.5-.3-1 .1-1.4.3a26.5 26.5 0 0 1-14.8.9 11.3 11.3 0 0 1-9-10.8c-.4-6.4 2.1-10.4 7.8-12.5a37.9 37.9 0 0 1 9.4-2 12.5 12.4 0 0 0 4.9-1.3 2.8 2.8 0 0 0-.2-5 11.9 11.9 0 0 0-8.7-.2 1.7 1.7 0 0 0-1 .6c-.9 1.8-2.4 1.5-4 1.5h-6c-1 0-1.2-.4-1-1.3a11.4 11.4 0 0 1 9-9 29.1 29.1 0 0 1 16.3.5c4.8 1.6 7.2 5 7.2 10.1l.1 13.7zm-10.2-1V173c.2-1.2 0-1.6-1.4-1.1a34.5 34.5 0 0 1-6.3 1.8 10.5 10.5 0 0 0-3.3 1 4.8 4.8 0 0 0-2.5 5.7c.5 2.3 2 3.4 4.7 3.5 5.6.1 8.8-3.2 8.8-9.1z" class="cls-2"/><path id="path14" fill="#1b8a82" d="M56.5 126.9V141c0 1.2-.3 1.6-1.5 1.5-2.4-.3-4.9.6-7-1-.6-.3-1 .2-1.5.3a27 27 0 0 1-14.6 1 11.4 11.4 0 0 1-9.2-10.8c-.4-6.3 2-10.3 7.6-12.5 3.4-1.4 7.1-1.7 10.8-2.2A9.2 9.2 0 0 0 45 116c2-1.4 2-3.8-.1-4.9a11.2 11.2 0 0 0-9.3-.1 1.2 1.2 0 0 0-.7.4c-.7 1.8-2.3 1.5-3.7 1.5h-5.8c-1.3 0-1.7-.2-1.3-1.5 1-4.1 3.4-7.1 7.5-8.4a27.5 27.4 0 0 1 18.6.5c4.3 1.7 6.2 5 6.3 9.5v13.8zm-10-4.3a64 64 0 0 1-9.2 2.7 6.6 6.6 0 0 0-3.4 2c-2.2 2.3-1.3 6.5 1.6 7.5a8.5 8.4 0 0 0 10.9-6.2c.4-1.9 0-3.8.2-6z" class="cls-2"/><path id="path16" fill="#1b8a82" d="M198.5 126.7V141c0 1.3-.4 1.7-1.7 1.6-2.3-.2-4.7.6-6.9-1-.4-.3-1 .2-1.5.4a26.6 26.6 0 0 1-14.7.8 11.4 11.4 0 0 1-9-11c-.4-5.9 2.2-10 7.6-12.2a33.6 33.6 0 0 1 8.8-2 14.7 14.7 0 0 0 5.5-1.2 2.8 2.8 0 0 0-.3-5.4 12.4 12.4 0 0 0-8.3 0c-.4 0-1 .3-1.2.7-.6 1.7-2 1.4-3.3 1.4h-6.1c-1.3 0-1.6-.2-1.3-1.6 1.4-5.2 5-8.4 11.2-9.3a32.2 32.2 0 0 1 12.5.6c6 1.5 8.7 5 8.7 11.2v12.7zm-9.8-1.4a10 10 0 0 1 0-1.3c.1-1.4-.4-1.4-1.5-1a37.9 37.9 0 0 1-6.6 2 9.4 9.4 0 0 0-4.1 1.7c-2.8 2.2-2.3 6.8 1 8a8.6 8.6 0 0 0 10.7-5.1 13.6 13.6 0 0 0 .5-4.3z" class="cls-2"/><path id="path18" fill="#1b8a82" d="M126.5 182.6h19.9c1.1 0 1.5.3 1.4 1.4v6.3c0 .9-.2 1.2-1.1 1.2h-32c-.8 0-1.2-.3-1.2-1.2v-6a2.5 2.5 0 0 1 1-2l18.8-20.7a4 4 0 0 0 1.3-1.8h-14c-3.9 0-5.7-1.7-5.9-5.7 0-2.7 0-2.7 2.6-2.7H146c1.2 0 1.5.3 1.6 1.6.7 5-1 8.6-4.7 12.1-5.7 5.4-10.8 11.4-16.5 17.5z" class="cls-2"/><path id="path20" fill="#1b8a82" d="M98.4 159.8H84.5c-4.7 0-7.1-3-6.1-7.7.1-.9.7-.7 1.2-.7h30c1.4 0 1.9.4 1.7 1.8a1 1 0 0 0 0 .3c.8 4.8-1.2 8.2-4.6 11.5-5.7 5.6-11 11.6-16.3 17.4.4.5 1 .3 1.4.3h17.7c1.6 0 2 .5 1.8 2v5.6c0 .8-.1 1.2-1.1 1.2H78.4c-1 0-1.4-.3-1.2-1.2a1.1 1.1 0 0 0 0-.3c-.8-4.6.9-8 4.1-11.3 5.6-5.5 10.7-11.6 16-17.4l1.1-1.5z" class="cls-2"/><path id="path22" fill="#1b8a82" d="M84.6 129.9l5.8-20 1-3.4c.8-2.9 2.3-4 5.3-4h6c1.3 0 1.6.2 1 1.5l-6 17.1c-2.4 6.7-4.8 13.4-7 20.2a1.7 1.7 0 0 1-2 1.4h-8.2a1.5 1.5 0 0 1-1.6-1.2l-13.3-37.6c-.4-1.1 0-1.4 1-1.4H75c1.2 0 1.6.3 2 1.5 2.2 8.1 4.6 16.3 7 24.4.2.5.1 1 .7 1.5z" class="cls-2"/><path id="path24" fill="#1b8a82" d="M10 116.7v-24c0-1.3.3-1.8 1.6-1.6h3.6a4.8 4.8 0 0 1 5 4.7V141c0 1.4-.4 1.8-1.8 1.7h-7c-1.2 0-1.6-.3-1.5-1.5v-24.4z" class="cls-2"/><path id="path26" fill="#1b8a82" d="M163.6 107.9v3.6c0 1.2-.3 1.7-1.5 1.5a16 16 0 0 0-2.1 0c-5.3 0-8.2 3-8.2 8.3V141c0 1.3-.4 1.7-1.7 1.6h-7.6c-.9 0-1.1-.2-1.1-1.1v-38c0-.5 0-1 .8-1h5.4a2.8 2.8 0 0 1 2 .7c1.2 1.6 2.5 1 3.9.5a29.4 29.4 0 0 1 9-1.2c.9 0 1.2.3 1.1 1.1v4.3z" class="cls-2"/><path id="path28" fill="#1b8a82" d="M63.6 171.3v-18.5c0-1 .2-1.5 1.3-1.4h4.2c3.1 0 4.6 1.5 4.7 4.7V190c0 1.2-.4 1.6-1.5 1.5h-7c-1.4 0-1.8-.3-1.8-1.7v-18.4z" class="cls-2"/></svg>
